<?xml version="1.0" encoding="utf-8"?>
<!-- Generator: Adobe Illustrator 27.1.1, SVG Export Plug-In . SVG Version: 6.00 Build 0)  -->
<svg version="1.1" xmlns="http://www.w3.org/2000/svg" xmlns:xlink="http://www.w3.org/1999/xlink" x="0px" y="0px"
	 viewBox="0 0 316.35 71.32" style="enable-background:new 0 0 316.35 71.32;" xml:space="preserve">
<style type="text/css">
	.st0{fill:#C8202F;}
	.st1{fill:#55585A;}
</style>
<g id="Layer_1">
	<polygon class="st0" points="312.26,22.05 312.26,4.42 294.63,4.42 287.71,11.34 305.34,11.34 305.34,28.97 	"/>
	<path class="st0" d="M23.5,53.92h-5.8l6.43-34.89h7.44l6.43,34.89h-5.8l-1.06-7.73h-6.57L23.5,53.92z M25.43,40.97h4.83
		l-2.37-14.98h-0.1L25.43,40.97z"/>
	<path class="st0" d="M42.12,24.25h-5.8v-5.22h17.59v5.22h-5.8v29.67h-5.99V24.25z"/>
	<path class="st0" d="M57.22,53.92V19.03h5.99V48.7h9.42v5.22H57.22z"/>
	<path class="st0" d="M80.79,53.92h-5.8l6.43-34.89h7.44l6.43,34.89h-5.8l-1.06-7.73h-6.57L80.79,53.92z M82.73,40.97h4.83
		l-2.37-14.98h-0.1L82.73,40.97z"/>
	<path class="st0" d="M97.77,53.92V19.03h5.56l7.3,19.96h0.1V19.03h5.41v34.89h-5.22l-7.63-21.79h-0.1v21.79L97.77,53.92z"/>
	<path class="st0" d="M125.15,24.25h-5.8v-5.22h17.59v5.22h-5.8v29.67h-5.99V24.25z"/>
	<path class="st0" d="M140.23,53.92V19.03h5.99v34.89H140.23z"/>
	<path class="st0" d="M162.03,30.67v-2.71c0-2.95-1.35-4.21-2.9-4.21c-2.42,0-3.19,1.26-3.19,3.87v17.69c0,2.61,0.77,3.87,3.19,3.87
		c2.17,0,2.9-1.26,2.9-3.53v-4.2h5.99v4.01c0,4.93-2.9,8.94-8.89,8.94c-6.28,0-9.18-4.01-9.18-8.94V27.48c0-4.93,2.9-8.94,9.18-8.94
		c5.99,0,8.89,4.35,8.89,9.57v2.56H162.03z"/>
	<path class="st1" d="M183.55,27.63c-0.24-3-1.84-3.87-3.19-3.87c-1.93,0-3,1.26-3,3.43c0,5.94,12.18,8.79,12.18,18.27
		c0,5.75-3.87,8.94-9.47,8.94c-5.56,0-8.75-4.45-8.99-9.67l5.7-0.82c0.24,3.53,1.64,5.27,3.58,5.27c2.08,0,3.48-1.11,3.48-3.19
		c0-6.91-12.18-8.75-12.18-18.75c0-5.56,3.38-8.7,9.28-8.7c4.88,0,7.78,3.53,8.31,8.46L183.55,27.63z"/>
	<path class="st1" d="M197,24.25h-5.8v-5.22h17.59v5.22H203v29.67H197V24.25z"/>
	<path class="st1" d="M213.05,53.92h-5.8l6.43-34.89h7.44l6.43,34.89h-5.8l-1.06-7.73h-6.57L213.05,53.92z M214.98,40.97h4.83
		l-2.37-14.98h-0.1L214.98,40.97z"/>
	<path class="st1" d="M232.17,24.25h-5.8v-5.22h17.59v5.22h-5.8v29.67h-5.99V24.25z"/>
	<path class="st1" d="M247.34,53.92V19.03h5.99v34.89H247.34z"/>
	<path class="st1" d="M257.06,27.48c0-4.93,2.9-8.94,9.18-8.94c6.28,0,9.18,4.01,9.18,8.94v17.98c0,4.93-2.9,8.94-9.18,8.94
		c-6.28,0-9.18-4.01-9.18-8.94V27.48z M263.05,45.32c0,2.61,0.77,3.87,3.19,3.87c2.42,0,3.19-1.26,3.19-3.87V27.63
		c0-2.61-0.77-3.87-3.19-3.87c-2.42,0-3.19,1.26-3.19,3.87V45.32z"/>
	<path class="st1" d="M279.29,53.92V19.03h5.56l7.3,19.96h0.1V19.03h5.41v34.89h-5.22l-7.64-21.79h-0.1v21.79H279.29z"/>
</g>
<g id="Layer_2">
</g>
</svg>
