<?xml version="1.0" encoding="utf-8"?>
<!-- Generator: Adobe Illustrator 25.1.0, SVG Export Plug-In . SVG Version: 6.00 Build 0)  -->
<svg version="1.1" id="Layer_2" xmlns="http://www.w3.org/2000/svg" xmlns:xlink="http://www.w3.org/1999/xlink" x="0px" y="0px"
	 viewBox="0 0 196.2 96.8" style="enable-background:new 0 0 196.2 96.8;" xml:space="preserve">
<style type="text/css">
	.st0{fill:#ED1C24;}
</style>
<path class="st0" d="M38.7,42.3c0.7-1.5,0.6-3-0.3-3.5c-0.9-0.4-2.2,0.4-2.9,1.9c-0.7,1.5-0.6,3,0.3,3.5
	C36.7,44.6,38,43.7,38.7,42.3z M45.1,31.1c2.4,2.5,8.3,1,11.8-1.9c4.2-3.5,5.8-8.2,3.3-11.2c-2-2.4-6.9-2.9-11.8,1.8
	C44.8,23.1,42.6,28.4,45.1,31.1z M38.2,26.9c2.7,0.4,5.6-3.5,6.4-7.2c0.9-4.4-0.3-8.1-3.3-8.8c-2.4-0.5-5.6,1.7-6.4,7.1
	C34.3,22,35.4,26.5,38.2,26.9z M31.4,27.2c2-0.9,2.3-4.9,1.1-7.7c-1.3-3.4-3.8-5.3-6.1-4.4c-1.9,0.7-3.1,3.6-1.3,7.7
	C26.5,25.7,29.3,28.2,31.4,27.2z M20.2,29.3c1.7,1.5,4.1,2.2,5.3,0.9c1.1-1.2,0.2-3.8-1.3-5.3c-1.7-1.7-3.9-2.2-5.2-0.9
	C17.9,25.1,17.9,27.3,20.2,29.3z M53.3,46c1.1-0.3,1.6-1.1,0.3-2.4c-1.2-1.3-3.1-2.6-6.5-3.6c0,0,0.3,4.5-0.9,9.5
	C47.8,48.1,50.8,46.7,53.3,46z M65.8,61.9c1.3,0,2.3-1,2.3-2.3c0-1.3-1-2.3-2.3-2.3c-1.3,0-2.3,1-2.3,2.3
	C63.5,60.9,64.6,61.9,65.8,61.9z M134,59.5c1.3,0,2.3-1,2.3-2.3c0-1.3-1-2.3-2.3-2.3c-1.3,0-2.3,1-2.3,2.3
	C131.8,58.5,132.8,59.5,134,59.5z M158.1,69.2c2.1,0,3.7-1,3.7-2.2s-1.7-2.2-3.7-2.2c-2.1,0-3.7,1-3.7,2.2S156,69.2,158.1,69.2z
	 M110.2,67c0-1.2-1.7-2.3-3.8-2.3c-2.1,0-3.8,1-3.8,2.3c0,1.2,1.7,2.3,3.8,2.3C108.5,69.3,110.2,68.2,110.2,67z M103.7,74.6
	c-1.3-0.7-2.1,0.8-2.1,0.8S99.8,79,97,79c-2.5,0-3.4-3-3.4-3c8-4,8.3-12.2,4.7-14.5c-3.3-2-6,0.4-6.8,1.2c0.5-4.3,0.7-7.2,0.7-7.2
	c0-1.3-0.7-2.3-1.8-2.4c-1.1-0.1-1.9,0.6-2,2.1c0,0,0,0,0,0c0,0.4-0.3,4.1-0.9,9.1c-0.1,1.1-0.3,2.3-0.4,3.5c-0.9,3.1-3.5,9.2-9,9
	c-4.5-0.2-4.3-4.8-4.1-6.1c0.1-1.4,1.7-6.3,4.4-5.9c1.5,0.3,0.2,2.9,0.2,2.9S76.9,70.3,79,71c2.1,0.7,4-2.5,4-5.5
	c0-3-2.2-4.8-4.4-5.1c-2-0.2-9.2,1.5-8.6,13.6c0,0-0.7,3.1-2.9,3.1c-2.2,0-3-4.6-2.3-6.9c0.7-2.3,1.1-3.8,1.1-3.8s1-2.3-0.8-2.9
	c-1.8-0.6-2.9,1.4-3.2,2.6c-0.3,1.2-2.7,12.1-5.7,11.8c-2.1-0.3-0.6-5.3-0.6-5.3s1.9-5.7-2.8-4.7c0,0,8.2-12,0.9-14.9
	c-3-1-9.8-0.3-10.6,19.9c0,0-6,7.2-15.1,7.2c-9.1,0-14.7-11.2-10.5-26.4C19,47.3,26.4,32,36.6,33.2c8.6,1.6,3.3,18,3.3,18
	s-4.2,12.2-9.9,11.2c-5.9-1.1-2.4-10.7-0.3-13.3c0,0,1.4-2-0.5-2.8c0,0-1.4-0.7-2.7,1.1c-1.4,1.8-3.6,5.5-3.6,10.8
	c0,5.3,3.3,7.4,5.9,8c3.1,0.8,9.5-0.8,14.6-12.5c0,0,7.5-19.3-3.9-23.7c0,0-15.3-6-25.8,20.4c-3.2,8-4.7,28.5,9.7,32.9
	c0,0,9.3,3.3,19.2-5.1c0,0-0.7,5.1,2,5c2.3,0.1,2-3.9,2-3.9s-0.3-7.6,4-7.9c1.2,0,1.5,0.8,1,4c-0.4,2.6-0.6,6.1,3.4,6.7
	c3.9,0.5,6.8-5.1,6.8-5.1s1.4,4.2,4.8,4.2c3.3,0,5.1-3.1,5.1-3.1s5.3,7.3,14-0.7l0.1-0.2c-0.2,1.4-0.5,2.8-0.7,4.2
	c-0.2,1,0.4,2.2,1.5,2.4c1,0.2,2.3-0.2,2.7-2.2c0.3-1.5,0.5-3,0.8-4.5c0.9,2.2,2.8,5.4,7,5.6c5.7,0.2,7.4-5.7,7.4-5.7
	S104.9,75.2,103.7,74.6z M47,69.6c0,0,0.7-13.4,4.8-13.5c0,0,1.6-0.2,1.3,2.7C52.8,62.5,48.8,67.5,47,69.6z M90.9,72.9
	c0.5-8.6,4.1-8.4,4.1-8.4s2,0,1.7,2.2C96.3,70.8,90.9,72.9,90.9,72.9z M185.4,79.1c-0.6-0.1-1.2-0.1-1.8-0.3c-1-0.3-2-1-2.9-1.7
	c-0.5-0.4-1-0.9-1.5-1.3c0,0,0,0,0.1,0c3.5-1.3,5.3-2.6,5.4-2.7c0.8-0.6,1-1.7,0.4-2.5c-0.6-0.8-1.7-1-2.5-0.4h0l0,0
	c-0.2,0.1-1.8,1.3-4.9,2.4c-0.2,0.1-0.5,0.2-0.7,0.3c0-0.1-0.1-0.1-0.1-0.2c-1.2-1.8-2.3-3.7-3.3-5.5c-0.3-0.7-0.7-1.4-1-2.2
	c0.4-0.6,0.8-1.3,1.2-2l0,0c0,0,0.6-1,1.2-2.5c0.3-0.7,0.6-1.5,0.8-2.4c0.2-0.9,0.4-1.8,0.4-2.7c0-0.5-0.1-1-0.2-1.6
	c-0.1-0.4-0.3-0.8-0.5-1.2c-0.2-0.3-0.4-0.6-0.6-0.8c-0.4-0.4-0.8-0.7-1.3-0.9c-0.5-0.2-1-0.4-1.6-0.5l-0.1,0l-0.1,0
	c-0.1,0-0.1,0-0.2,0c-0.4,0-0.8,0-1.2,0.1c-0.7,0.1-1.3,0.4-1.8,0.8c-0.4,0.3-0.7,0.7-1,1c-0.4,0.6-0.6,1.2-0.8,1.9
	c-0.1,0.6-0.2,1.3-0.2,2c0,1,0.1,2.1,0.3,3.2c0.3,1.6,0.8,3.3,1.4,4.9c0,0,0,0.1,0,0.1c-2.8,4.2-5.4,7.4-8,10.2
	c-1-0.1-2.1-0.2-3.1-0.3c-1-0.1-1.9,0.6-2,1.6c-0.1,1,0.6,1.9,1.6,2c0.1,0,0.3,0,0.4,0c-1.6,1.6-3,2.8-4,3.7l-2,1.5
	c-0.8,0.6-1,2-0.4,2.8c0.6,0.8,2.1,0.9,2.9,0.3c0.1,0,2.9-1.7,7.2-6.3c0.5-0.5,1-1,1.5-1.6c0.6,0,1.3,0,1.9,0
	c4.5,0,8.2-0.6,11.3-1.4c1.2,1.5,2.5,2.8,4,3.9c0.8,0.6,1.5,1,2.5,1.4c1,0.3,2.2,0.5,3.2,0.6c1,0,2-0.7,2.1-1.7
	C187.2,80,186.4,79.2,185.4,79.1z M170.2,54.9c0.1-0.2,0.1-0.4,0.2-0.6c0.1-0.1,0.1-0.2,0.1-0.2c0.1-0.1,0.1-0.1,0.2-0.2
	c0.1,0,0.3-0.1,0.6-0.1c0.2,0,0.4,0.1,0.5,0.2c0.1,0,0.1,0.1,0.2,0.1c0,0,0.1,0.1,0.1,0.1c0,0.1,0.1,0.2,0.1,0.3
	c0,0.2,0.1,0.3,0.1,0.6c0,0.5-0.1,1.1-0.3,1.8c-0.3,1-0.7,2-1,2.8c-0.1,0.2-0.1,0.3-0.2,0.4c-0.1-0.6-0.3-1.1-0.4-1.6
	c-0.2-0.9-0.3-1.8-0.3-2.5C170.1,55.6,170.1,55.2,170.2,54.9z M165.3,74.6c1.6-1.9,3.2-4,4.7-6.2c0,0.1,0.1,0.2,0.1,0.3
	c0.7,1.4,1.6,2.9,2.5,4.5c0.1,0.2,0.2,0.4,0.4,0.6C170.8,74.1,168.2,74.5,165.3,74.6z M153.7,73.9c0.3-1.4-0.6-1.8-0.7-1.8
	c-0.1,0-1.3-0.5-1.9,0.8c0,0-1.2,3.5-3.9,3.6c-2.7,0.1-3.7-2.1-3.7-2.1s3.9-3.1,6-9.1c2.2-6,2-11.8-1.5-12.6
	c-3.4-0.8-7.6,2.9-9.3,9.3c-1.6,6.1,0.1,10.8,0.3,11.7c0,0-1.6,1.7-3.7,1.4c-2.1-0.3-3-3.3-2.1-7c0.9-3.8,2-6.4,0-7.1
	c-2.8-0.6-3.2,2.3-3.6,3.7c0,0-1.8,8.8-6.9,8.7c-1.8,0-3.1-0.8-3.7-1.5c0.8-0.8,1.6-1.6,2.4-2.5c1.4-1.7,2.8-3.6,4-5.9
	c0.8-1.6,1.4-3.1,1.8-4.3c0.4-1.2,0.5-2.3,0.5-3.2c0-0.8-0.1-1.5-0.4-2.2c-0.2-0.5-0.4-0.9-0.7-1.2c-0.4-0.5-0.8-0.8-1.2-1
	c-0.2-0.1-0.4-0.2-0.5-0.2c-0.1-0.1-0.3-0.1-0.5-0.2c-0.4-0.1-0.8-0.2-1.4-0.2c-0.6,0-1.4,0.1-2.2,0.5c-0.6,0.3-1.2,0.6-1.8,1.1
	c-0.9,0.8-1.8,1.8-2.7,3.2c-0.9,1.4-1.7,3.2-2.5,5.6l0,0l0,0c-1.1,3.6-1.7,7.4-1.8,11c-0.7,0.5-1.4,1.1-1.4,1.1s-1.8,1.1-1,3
	c0.4,0.9,1.6,1.1,2.5,0.7c0.1,0.8,0.2,1.7,0.3,2.4c0.2,1.3,0.5,2.6,0.8,3.7c0.3,0.9,0.6,1.7,0.9,2.4c0.3,0.5,0.6,1.1,0.9,1.5
	c0.5,0.7,1.1,1.3,1.9,1.8c0.4,0.2,0.8,0.4,1.2,0.5c0.4,0.1,0.9,0.2,1.3,0.2c0,0,0.1,0,0.1,0h0c0.4,0,0.8-0.1,1.2-0.2
	c0.7-0.2,1.3-0.5,1.9-1c0.4-0.3,0.7-0.7,0.9-1.2c0.4-0.6,0.6-1.3,0.7-2c0.1-0.7,0.2-1.4,0.2-2.1c0-0.9-0.1-1.8-0.2-2.6
	c-0.2-1.2-0.5-2.3-0.8-3.3c3.5-0.5,5.8-2.9,6.4-3.8c0,0,0.5,4.2,4.5,5.1c2.8,0.7,6.2-2,6.2-2s1.9,3.1,5.6,3.2
	C150,80.3,153,77.3,153.7,73.9z M117.5,62.7c0.6-1.9,1.3-3.3,1.9-4.4c0.5-0.8,0.9-1.5,1.3-1.9c0.6-0.7,1.1-1.1,1.5-1.3
	c0.4-0.2,0.7-0.2,0.9-0.2c0.2,0,0.3,0,0.3,0l0,0l0.2,0.1l0.1,0l0,0c0,0,0.1,0.1,0.1,0.2c0.1,0.1,0.1,0.4,0.1,0.8
	c0,0.5-0.1,1.2-0.4,2.1c-0.3,1-0.8,2.2-1.5,3.6c-1,1.9-2.2,3.6-3.5,5.1c-0.8,1-1.7,1.8-2.5,2.5C116.3,67.2,116.8,64.9,117.5,62.7z
	 M120.6,84.8c-0.1,0.3-0.1,0.5-0.2,0.7c-0.1,0.1-0.1,0.2-0.2,0.3c-0.1,0.1-0.1,0.1-0.2,0.2c-0.1,0-0.2,0.1-0.5,0.1l0,0l0,0h0h0
	c-0.1,0-0.2,0-0.4-0.1c-0.1-0.1-0.3-0.2-0.5-0.3c-0.3-0.3-0.7-0.8-1-1.5c-0.5-1.1-1-2.5-1.3-4.3c-0.3-1.5-0.4-3.2-0.5-5
	c0.5,0.6,1.7,1.7,3.5,2.4c0.1,0.3,0.3,0.6,0.4,1c0.3,0.8,0.5,1.7,0.7,2.6c0.2,0.9,0.3,1.9,0.3,2.7C120.7,84,120.7,84.5,120.6,84.8z
	 M142.2,71.1c-0.5-2-0.5-4.8,0.3-7.7c1.7-6.3,3.8-7.8,4.7-7.5c0.9,0.2,1.2,3.1-0.4,7.4C144.8,68.6,142.2,71.1,142.2,71.1z"/>
</svg>
