<?xml version="1.0" encoding="utf-8"?>
<!-- Generator: Adobe Illustrator 25.1.0, SVG Export Plug-In . SVG Version: 6.00 Build 0)  -->
<svg version="1.1" id="Layer_2" xmlns="http://www.w3.org/2000/svg" xmlns:xlink="http://www.w3.org/1999/xlink" x="0px" y="0px"
	 viewBox="0 0 346.1 76.6" style="enable-background:new 0 0 346.1 76.6;" xml:space="preserve">
<style type="text/css">
	.st0{fill:#ED1C24;}
</style>
<g id="Page-1_1_">
	<g id="Asset-1KO_1_">
		<path id="Shape_1_" class="st0" d="M205,11.3c-3.3,1.6-6.3,3.9-8.6,6.7c-4.7,5.1-7.4,10.9-5.4,12.4c0.8,0.6,2.5,0.7,5.7-2.2
			c3-2.6,5.3-5.9,6.8-9.5C205.5,13.7,204.9,11.3,205,11.3 M230.3,20.5c-5.2-2.7-8.9-5.9-12.9-7.9c-3.9-2-6.1-2.7-9.1-2.4
			c-0.4,0.1-0.8,0.2-1.3,0.3c0,0,1.6,5.3-4.6,14.3s-12,9.1-13.6,6.6c-1.5-2.5,0.5-8,4.2-12.8c3-3.6,6.6-6.7,10.6-9.2
			c0,0-2.1-1.3-7.4,1.7c-8.9,5.5-16.5,12.9-22.3,21.6c-8.2,11.7-9.8,18.2-11,23.2c-1.2,5.1-0.1,10.5,5.5,10.5
			c5.6,0,12.2-8.6,14-11.6c3.4-5.5,5.7-14.1,1-12.9c-2.3,0.6-4.2,3.1-5.3,5.6c-0.7,1.6-1.3,3.2-1.7,4.9c-1.6,0.7-3.2,1.6-4.6,2.7
			c-1.5,1.1-3,2.4-4.3,3.8c0.3-3.7,1.4-7.3,3.2-10.6c2.3-5.1,7-8.8,12.5-9.8c3-0.2,7,2.3,3.6,11.8c-3.3,9.5-13.1,21-23.5,21.2
			c-9.5,0.1-15.8-12-2.5-33.3c14.8-23.5,31.9-30.7,37.6-31.5c5.7-0.8,7.4,1.7,7.4,1.7c3.4-1.4,7-2,10.6-1.8
			c6.8,0.5,12.1,5.3,19.1,8.7C233.7,17,232,18.8,230.3,20.5 M261.1,12.6c-4.7,3.1-11.3,5.8-17.6,5.2c-1.6,1.7-3.3,3.6-5,5.7
			c10.9,2.2,20.5-4.6,25.6-10.4c1.9-2.1,3.4-4.4,4.7-6.8C266.5,8.7,263.9,10.8,261.1,12.6 M246.6,43.4c0.1-0.1,0.1-0.3,0.2-0.5
			c-0.1-0.5-0.5-0.9-1-1c-1,0-2.5,0.2-6.2,4.3c-3.1,3.4-5.8,7.2-7.9,11.3c-2.1,3.8-3,6.8-1.7,7.6c0.4,0.2,0.9,0.3,1.3,0.1
			c0.8-0.2,1.8-1,3.2-2.6c0.7-0.8,1.4-1.9,2.3-3.1C239.2,56.2,245.4,45.6,246.6,43.4 M207.9,47.9c0.6-1.6,1.4-4.8-0.2-6.1
			c-1.7-1.3-6.3,1.8-6.3,5c0.1,2.3,1.7,4.3,4,5c0.4,0.1,0.6,0.1,0.8-0.2C206.8,50.4,207.4,49.1,207.9,47.9 M204.5,53.9
			c-1.1-0.5-2.1-1.1-3.1-1.9c-0.9-0.8-1.7-1.8-2.3-2.8c0-0.1-0.1,0-0.2,0c-1,1.2-1.9,2.5-2.7,3.8c-2.4,3.5-6.1,10.8-2.7,12
			c2.1,0.8,5.7-2.9,7.6-5.4c1.3-1.7,2.5-3.6,3.6-5.5C204.6,54,204.6,53.9,204.5,53.9 M242.4,62.3c-0.9,1.4-1.9,4.2,1.1,2.5
			c3.6-2.1,8.8-10,8.8-10h2.3c-2.1,3.3-4.5,6.4-7.1,9.4c-3.7,4.1-8.2,7.8-11.4,7.5c-3.8-0.4-2.5-5.3-2.5-5.3s-5.3,5.7-9,5.2
			c-4.9-0.5-3.4-6.7-3.4-6.7s-5.7,6.9-9.5,6.7c-6-0.3-4.5-7.6-2.8-12.8c0.9-2.8,1.7-4.9,1.7-4.9s-0.6,0.2-1.9,0.3
			c-0.7,0-1.9,0.2-1.9,0.2s-2.5,4.4-4.5,7c-2,2.6-10.4,11.8-15.3,10c-4.6-1.7-3.1-8.8-0.4-14.4c3.9-8.2,14.9-20,21.3-18.4
			c6.4,1.5,0.2,13.6,0.2,13.6l0,0c0.4,0.1,0.8,0.1,1.3,0c0.8-0.2,1.6-0.4,2.4-0.7c3.9-8.1,8.6-15.8,13.9-23
			c7.3-9.1,21.9-24.7,27.7-20.9c1.4,0.9,0.8,4.1-1.1,8c-0.8,0.2-1.7,0.5-2.6,0.7c1-1.7,1.8-3.6,2.3-5.6c0.9-4.7-10.1,5.2-17.9,15.9
			c-4.7,6.4-8.9,13.2-12.5,20.3c1.4-0.9,2.8-1.8,4-2.9c3.5-2.9,6.8-6,9.9-9.3c3-3.1,5.9-6.3,8.6-9.8c0.8,0,1.7-0.1,2.5-0.3
			c-2.9,3.9-6,7.6-9.3,11c-3.1,3.2-6.5,6.5-9.5,9c-2.6,2.2-5.4,4.3-8.3,6.2c0,0-6.9,13.8-3.1,14.7c2.2,0.5,6.5-6.1,6.5-6.1
			s5.7-8.6,9-12.5c4.6-5.3,8.6-8.3,12.6-8.4c1.6,0.2,2.9,1.1,3.7,2.4l1.1-1.7h6.8C256,39.3,243.4,60.7,242.4,62.3 M261.1,12.6
			c-4.7,3.1-11.3,5.8-17.6,5.2c-1.6,1.7-3.3,3.6-5,5.7c10.9,2.2,20.5-4.6,25.6-10.4c1.9-2.1,3.4-4.4,4.7-6.8
			C266.5,8.7,263.9,10.8,261.1,12.6 M249.5,67.6h1c0.3,0,0.5,0,0.8,0c0.3,0.1,0.5,0.4,0.5,0.8c0,0.2-0.1,0.5-0.3,0.6
			c-0.1,0.1-0.3,0.1-0.4,0.2c0.2,0,0.4,0.1,0.5,0.3c0.1,0.1,0.2,0.3,0.2,0.5v0.4c0,0,0,0.2,0,0.2h-0.5v-0.3c0-0.3,0-0.6-0.3-0.7
			c-0.2-0.1-0.4-0.1-0.6-0.1h-0.4v1.2h-0.5V67.6z M251.3,68.5c0-0.2,0-0.4-0.2-0.4c-0.2-0.1-0.4-0.1-0.6-0.1h-0.4V69h0.5
			c0.2,0,0.3,0,0.5,0C251.2,68.9,251.3,68.7,251.3,68.5 M253.2,69.1c0,1.2-0.8,2.3-2,2.6c-1.2,0.3-2.4-0.2-3-1.3
			c-0.6-1.1-0.4-2.4,0.4-3.3c1.1-1,2.7-1,3.8,0C252.9,67.7,253.2,68.4,253.2,69.1 M250.5,66.8c-0.6,0-1.2,0.2-1.6,0.7
			c-0.4,0.4-0.7,1-0.7,1.6c0,0.6,0.2,1.2,0.7,1.7c0.4,0.4,1,0.7,1.6,0.7c0.6,0,1.3-0.2,1.7-0.6c0.5-0.4,0.7-1,0.7-1.7
			c0-0.6-0.2-1.2-0.7-1.6c-0.4-0.4-1-0.7-1.7-0.7 M166.6,23.1h-6.4l-3.6,5.9h6.4L166.6,23.1z M136.2,43.4
			c2.7-3.8,10.2-16.8,10.2-16.8c-0.1-0.5-0.5-0.9-1-1c-1,0-2.8,0.3-6.2,4.6c-3,3.5-5.7,7.3-8.1,11.3c-2.1,3.8-3.1,6.7-1.9,7.4
			c0.4,0.2,0.9,0.2,1.3,0.1c1.4-0.6,2.6-1.5,3.4-2.7C134.7,45.6,135.4,44.4,136.2,43.4 M101.9,25.6c-1.8-1.3-6.3,1.8-6.3,5
			c0,3.2,4.1,4.3,4.6,4.3c0.2,0.1,0.5,0,0.6-0.2c0.1-0.2,0.7-1.3,1.3-2.9C102.8,30.2,103.6,27,101.9,25.6 M99.3,37
			c-1.2-0.4-2.4-0.9-3.5-1.6c-1-0.7-1.9-1.6-2.5-2.7c0-0.1-0.1,0-0.2,0c-0.1,0-0.4,0.6-2.8,4.1c-2.4,3.5-5.9,10.8-2.6,12
			c2.1,0.8,5.7-3,7.6-5.4c1.5-1.9,2.8-4,4-6.1C99.4,37.1,99.3,37,99.3,37 M151.5,39.1h2.3c0,0-11.7,17-18.4,16.2
			c-3.7-0.4-2.6-5-2.6-5s-5.2,6.1-10,4.9c-4.3-1.1-1.5-8.3-1.5-8.3c-0.5,0.2-9.9,10.8-16.5,8.2c-6.6-2.5-3.3-11.5-1.9-14.2
			c1.1-2.2,2.3-4.4,2.3-4.4s-1.1,0.3-1.7,0.5l-1.7,0.3c0,0-3.3,5.3-5.3,8c-2,2.7-10.4,11.8-15.4,9.9c-5.1-1.8-3.8-8.8-1-14.3
			c4.5-9,15.3-20.1,21.8-18.4c6.5,1.7,1.1,12.3,1.1,12.3s1.3,0.2,4.4-1.9c4.5-3.1,10.5-11.4,16.9-10.4c3,0.4,5.8,3.6,2,9.5
			c-1.3,1.9-3.3,3.6-4.9,1.9c-1-1-0.1-2.9,0.9-4.2c0.8-1.1,2.1-1.7,3.5-1.6c0,0,1.1-2.4-1.6-2.4c-2.2,0-7.7,5.2-10.9,10.3
			c-2.9,4.8-7.2,12.8-2.9,14.6c4,1.6,11.6-7.4,15.2-12.2c3.6-4.8,11.6-15.5,18.3-15.9c1.5,0,2.9,0.7,3.7,1.9l0.8-1.2h6.7
			c0,0-12.7,21.2-13.7,22.8c-0.8,1.3-1.9,4.1,1.1,2.5c3-1.6,8.9-9.3,8.9-9.3 M147.9,73.1c-5-3.4-10.9-5.2-17-4.9
			c-3.3,0.1-6.4,1.8-8.3,4.5c-2.6-4.5-7.6-7.2-15.5-7.2c-12.7,0.2-25.3,6-35.3,6c-9.5,0-16.6-6-16.3-16.7
			c0.4-18.8,16.2-35.7,28.1-43.3c6.8-4.4,12.5-5.7,16.2-5.2c1.8,0.3,3.3,1.4,4.1,3c0.8,1.6,0.7,3.5-0.2,5.1c-3,6.8-7.2,6.2-7.1,3
			c0.1-1.7,1.1-3.3,2.5-4.2c0.8-0.4,1.6-0.6,2.5-0.6c0.6-0.5,1.1-4.2-3.8-3c-4.9,1.2-10.7,6-16.3,12.2S67.3,39.7,65.1,52
			c-1,5.7-0.3,16.1,13.2,15.9c11.4,0,28.3-7.6,43.8-7.5c5.4,0,10.7,1.4,15.3,4.2C141.3,67,144.9,69.8,147.9,73.1"/>
	</g>
</g>
</svg>
