<?xml version="1.0" encoding="utf-8"?>
<!-- Generator: Adobe Illustrator 25.2.1, SVG Export Plug-In . SVG Version: 6.00 Build 0)  -->
<svg version="1.1" id="Layer_1" xmlns="http://www.w3.org/2000/svg" xmlns:xlink="http://www.w3.org/1999/xlink" x="0px" y="0px"
	 viewBox="0 0 178.7 67.9" style="enable-background:new 0 0 178.7 67.9;" xml:space="preserve">
<style type="text/css">
	.st0{fill-rule:evenodd;clip-rule:evenodd;fill:#0E2381;}
	.st1{fill:#0E2381;}
</style>
<g>
	<g>
		<path class="st0" d="M58.7,19.3c-0.8,0.6-1.9,0.8-1.9,0.8s-2,0.4-2.1-0.9c-0.1-0.9,0.4-1.5,1.5-2.4c1.1-0.9,4.7-2.8,5.4-9
			c-0.3,0.4-6.2,6.3-15,8.1c-9.2,1.9-15.2,7.1-12,14c3.2,6.9,19.5,3.7,25.5-11.4L58.7,19.3z M28.9,33.9c5.2,9.2-2.9,25.9-2.7,25.7
			C39.9,37.8,50.9,34,50.9,34l5.1,0l13.2,0L56.1,59c0,0-0.4,1.4-2.5,1.4L8,60.4c0,0-8.6-1.1-4.1-9.7C19,22,16.8,26.2,24.9,10.7
			c0-0.1,1.5-2.8,2.4-3.9c2.5-2.6,5.2-2,8.5-2.1h41.6c0,0,7-0.2,3.2,7.4c-3.9,7.7-9.3,17.7-9.3,17.7s-11.8,0-14,0
			c-3.7,3.3-7.7,4-7.7,4"/>
	</g>
	<g>
		<path class="st0" d="M67.5,56.9c0.2,1.2,0.4,2.4,0.5,3.6c0.5,0,1-0.1,1.5-0.1c0.5,0,1,0.1,1.5,0.1l-2.5-12.1
			c-0.2,0-0.4,0.1-0.7,0.1c-0.2,0-0.4,0-0.7-0.1l-7.3,12.1c0.3,0,0.6-0.1,0.8-0.1c0.3,0,0.5,0,0.8,0.1c0.6-1.2,1.2-2.3,1.9-3.6H67.5
			L67.5,56.9z M64.2,55.8l2.4-4.1l0.8,4.1H64.2L64.2,55.8z"/>
		<path class="st1" d="M80.2,50.8c0.3-0.6,0.6-1.2,0.9-1.7c-0.3-0.4-1.3-0.8-2.6-0.8c-2.6,0-4.3,1.7-4.7,3.7c-0.8,4.2,4.6,3.2,4,6
			c-0.2,1.2-1.3,1.8-2.4,1.8c-1.2,0-2-0.7-2-1.9h-0.3c-0.2,0.7-0.6,1.5-0.9,2.2c0.7,0.5,1.7,0.7,2.7,0.7c2.7,0,4.9-1.6,5.4-3.8
			c0.8-4-4.6-3.6-4.1-5.9c0.2-1,0.9-1.7,2.2-1.7c1,0,1.5,0.6,1.7,1.5H80.2L80.2,50.8z"/>
		<path class="st1" d="M88.9,50.8c0.3-0.6,0.6-1.2,0.9-1.7c-0.3-0.4-1.3-0.8-2.6-0.8c-2.6,0-4.3,1.7-4.7,3.7c-0.8,4.2,4.6,3.2,4,6
			c-0.2,1.2-1.3,1.8-2.4,1.8c-1.2,0-2-0.7-2-1.9h-0.3c-0.2,0.7-0.6,1.5-0.9,2.2c0.7,0.5,1.7,0.7,2.7,0.7c2.7,0,4.9-1.6,5.4-3.8
			c0.8-4-4.6-3.6-4.1-5.9c0.2-1,0.9-1.7,2.2-1.7c1,0,1.5,0.6,1.7,1.5H88.9L88.9,50.8z"/>
		<path class="st0" d="M103.8,54.5c0.5-2.7-0.3-6.2-5.2-6.2c-4.3,0-7.4,2.8-8.1,6.3c-0.8,4,1.4,6.2,5.2,6.2
			C100,60.7,103.1,57.9,103.8,54.5L103.8,54.5z M98.2,49.3c2.6,0,3.2,2.6,2.7,4.8c-0.6,2.9-2.3,5.6-5,5.6c-2.6,0-3.2-2.4-2.7-4.7
			C94,51.1,95.8,49.3,98.2,49.3L98.2,49.3z"/>
		<path class="st1" d="M114.2,58.4c-0.9,0.7-2.3,1.3-3.4,1.3c-2.7,0-3.7-2.1-3.2-5.1c0.5-2.6,2.2-5.3,5.1-5.3c1.1,0,2.1,0.7,2.6,1.6
			h0.2c0.3-0.6,0.5-1.2,0.7-1.8c-0.9-0.6-2.2-0.9-3.4-0.9c-3.8,0-7.3,2.1-8.2,6.6c-0.7,3.6,1.7,5.9,5.4,5.9c1.2,0,2.4-0.2,3.6-0.7
			l0.7-1.5L114.2,58.4L114.2,58.4z"/>
		<path class="st1" d="M116.4,60.5c0.4,0,0.9-0.1,1.3-0.1c0.4,0,0.9,0.1,1.3,0.1l2.3-11.9c-0.4,0-0.9,0.1-1.3,0.1
			c-0.4,0-0.9-0.1-1.3-0.1L116.4,60.5L116.4,60.5z"/>
		<path class="st0" d="M128.5,56.9c0.2,1.2,0.4,2.4,0.5,3.6c0.5,0,1-0.1,1.5-0.1c0.5,0,1,0.1,1.5,0.1l-2.5-12.1
			c-0.2,0-0.4,0.1-0.7,0.1c-0.2,0-0.4,0-0.7-0.1l-7.3,12.1c0.3,0,0.6-0.1,0.8-0.1c0.3,0,0.5,0,0.8,0.1c0.6-1.2,1.2-2.3,1.9-3.6
			H128.5L128.5,56.9z M125.1,55.8l2.4-4.1l0.8,4.1H125.1L125.1,55.8z"/>
		<path class="st1" d="M139.5,49.8c1.1,0,2.1,0.1,3.1,0.2c0-0.2,0-0.5,0.1-0.7c0-0.2,0.1-0.5,0.2-0.7h-9c0,0.2,0,0.5-0.1,0.7
			c-0.1,0.3-0.2,0.5-0.2,0.7c0.9-0.1,2-0.2,3.3-0.2l-2.1,10.7c0.4,0,0.9-0.1,1.3-0.1c0.4,0,0.9,0.1,1.3,0.1L139.5,49.8L139.5,49.8z"
			/>
		<path class="st1" d="M142.5,60.5c0.4,0,0.9-0.1,1.3-0.1c0.4,0,0.9,0.1,1.3,0.1l2.3-11.9c-0.4,0-0.9,0.1-1.3,0.1
			c-0.4,0-0.9-0.1-1.3-0.1L142.5,60.5L142.5,60.5z"/>
		<path class="st0" d="M161.8,54.5c0.5-2.7-0.3-6.2-5.2-6.2c-4.3,0-7.4,2.8-8.1,6.3c-0.8,4,1.4,6.2,5.2,6.2
			C158,60.7,161.2,57.9,161.8,54.5L161.8,54.5z M156.3,49.3c2.6,0,3.2,2.6,2.7,4.8c-0.6,2.9-2.3,5.6-5,5.6c-2.6,0-3.2-2.4-2.7-4.7
			C152,51.1,153.8,49.3,156.3,49.3L156.3,49.3z"/>
		<path class="st1" d="M162.7,60.5c0.2,0,0.5-0.1,0.7-0.1s0.5,0,0.7,0.1l1.6-8.4l1.5,2c1.6,2.1,3,4.2,4.6,6.5l1.5,0l2.3-11.9
			c-0.2,0-0.5,0.1-0.7,0.1c-0.2,0-0.5,0-0.7-0.1l-1.6,8.1c-1.9-2.8-4-5.4-5.9-8.1H165L162.7,60.5L162.7,60.5z"/>
		<path class="st1" d="M80.7,39.4c-0.8-2.7-1.7-5.4-2.4-8.2c-0.3,0-0.5,0.1-0.7,0.1s-0.5-0.1-0.7-0.1c-1.4,4.4-2.8,8.4-4.1,11.9
			c0.3,0,0.5-0.1,0.8-0.1c0.3,0,0.5,0.1,0.8,0.1c0.5-2.4,1.3-4.9,2.3-7.9c0.8,2.7,1.6,5.4,2.3,7.8c0.2-0.1,0.4,0,0.7,0
			c1.8-2.7,3.6-5.4,5.4-8c-0.3,2.7-0.4,5.3-0.8,8.1c0.5,0,0.9-0.1,1.4-0.1c0.5,0,0.9,0.1,1.4,0.1c0.1-3.5,0.4-7.3,0.8-11.9
			c-0.3,0-0.5,0.1-0.8,0.1c-0.2,0-0.5-0.1-0.7-0.1C84.4,34.1,82.4,36.9,80.7,39.4L80.7,39.4z"/>
		<path class="st1" d="M90.1,38.3C90,39,89.9,39.7,90,40.4c0.2,2.3,2.4,2.9,4.5,2.9c1.1,0,2.4-0.2,3.5-0.9c2.1-1.3,2.4-3.1,2.8-5
			l1.2-6.2c-0.2,0-0.5,0.1-0.7,0.1c-0.2,0-0.5,0-0.7-0.1l-1,5.3c-0.2,0.9-0.6,2.8-1,3.6c-0.9,1.5-1.9,2.1-3.5,2.1
			c-0.8,0-1.4-0.2-1.8-0.7c-0.5-0.6-0.5-1.1-0.5-2c0-0.9,0.3-2.3,0.5-3.3l1-4.9c-0.4,0-0.9,0.1-1.3,0.1c-0.4,0-0.9-0.1-1.3-0.1
			L90.1,38.3L90.1,38.3z"/>
		<path class="st1" d="M102.6,43.1c0.2,0,0.5-0.1,0.7-0.1c0.2,0,0.5,0,0.7,0.1l1.6-8.4l1.5,2c1.6,2.1,3,4.2,4.6,6.5l1.5,0l2.3-11.9
			c-0.2,0-0.5,0.1-0.7,0.1c-0.2,0-0.5,0-0.7-0.1l-1.6,8.1c-1.9-2.8-4-5.4-5.9-8.1h-1.7L102.6,43.1L102.6,43.1z"/>
		<path class="st1" d="M116.3,43.1c0.4,0,0.9-0.1,1.3-0.1c0.4,0,0.9,0.1,1.3,0.1l2.3-11.9c-0.4,0-0.9,0.1-1.3,0.1
			c-0.4,0-0.9-0.1-1.3-0.1L116.3,43.1L116.3,43.1z"/>
		<path class="st1" d="M131.5,41c-0.9,0.7-2.3,1.3-3.4,1.3c-2.7,0-3.7-2.1-3.2-5.1c0.5-2.6,2.2-5.3,5.1-5.3c1.1,0,2.1,0.7,2.6,1.6
			h0.2c0.3-0.6,0.5-1.2,0.7-1.8c-0.9-0.6-2.2-0.9-3.4-0.9c-3.8,0-7.3,2.1-8.2,6.6c-0.7,3.6,1.7,5.9,5.4,5.9c1.2,0,2.4-0.2,3.6-0.7
			l0.7-1.5L131.5,41L131.5,41z"/>
		<path class="st1" d="M133.7,43.1c0.4,0,0.9-0.1,1.3-0.1c0.4,0,0.9,0.1,1.3,0.1l2.3-11.9c-0.4,0-0.9,0.1-1.3,0.1
			c-0.4,0-0.9-0.1-1.3-0.1L133.7,43.1L133.7,43.1z"/>
		<path class="st0" d="M142.8,37.9c3.1,0,5.5-0.7,6.1-3.8c0.4-2-0.7-2.9-3.2-2.9h-4.3l-2.3,11.9c0.4,0,0.9-0.1,1.3-0.1
			c0.4,0,0.9,0.1,1.3,0.1L142.8,37.9L142.8,37.9z M143.9,32.1h1.1c0.9,0,1.4,0.9,1.2,2.3c-0.2,1.1-0.8,2.1-2,2.4
			c-0.4,0.1-0.8,0.1-1.2,0.1L143.9,32.1L143.9,32.1z"/>
		<path class="st0" d="M154.5,39.5c0.2,1.2,0.4,2.4,0.5,3.6c0.5,0,1-0.1,1.5-0.1c0.5,0,1,0.1,1.5,0.1L155.5,31
			c-0.2,0-0.4,0.1-0.7,0.1c-0.2,0-0.4,0-0.7-0.1l-7.3,12.1c0.3,0,0.6-0.1,0.8-0.1c0.3,0,0.5,0,0.8,0.1c0.6-1.2,1.2-2.3,1.9-3.6
			H154.5L154.5,39.5z M151.1,38.4l2.4-4.1l0.8,4.1H151.1L151.1,38.4z"/>
		<path class="st1" d="M164.5,31.2c-0.4,0-0.9,0.1-1.3,0.1c-0.4,0-0.9-0.1-1.3-0.1L159.6,43h6.6c0-0.2,0-0.5,0.1-0.7
			c0-0.2,0.2-0.5,0.2-0.7c-1.2,0.1-2.5,0.2-4,0.2L164.5,31.2L164.5,31.2z"/>
		<path class="st1" d="M92.2,20.3c-0.4,0-0.9,0.1-1.3,0.1c-0.4,0-0.9-0.1-1.3-0.1l-0.8,4.1c-0.5,0.2-1.1,0.5-2,0.5
			c-2.6,0-3.8-1.8-3.2-4.8c0.6-2.9,2.5-5.6,5.4-5.6c1.4,0,2.5,0.6,3.1,1.8h0.2c0.2-0.6,0.5-1.2,0.8-1.8c-1.2-0.7-2.5-1.1-4-1.1
			c-4,0-7.6,2.2-8.5,6.5c-0.8,4.1,2.1,5.9,5.8,5.9c1.5,0,3.1-0.3,4.8-0.8L92.2,20.3L92.2,20.3z"/>
		<path class="st1" d="M96,13.8l-2.3,11.9h6.6c0-0.2,0-0.5,0.1-0.7c0-0.2,0.1-0.5,0.2-0.7c-1.1,0.1-2.3,0.2-4.1,0.2l0.9-4.4h1.8
			c0.8,0,1.5,0.1,2.1,0.2c0-0.2,0-0.5,0.1-0.7c0-0.2,0.2-0.5,0.2-0.7c-0.7,0.1-1.4,0.2-2.2,0.2h-1.8l0.7-3.7c1.8,0,2.9,0.1,4,0.2
			c0-0.2,0-0.5,0.1-0.7c0-0.2,0.2-0.5,0.2-0.7H96L96,13.8z"/>
		<path class="st0" d="M116.1,19.6c0.5-2.7-0.3-6.2-5.2-6.2c-4.3,0-7.4,2.8-8.1,6.3c-0.8,4,1.4,6.2,5.2,6.2
			C112.3,25.9,115.5,23,116.1,19.6L116.1,19.6z M110.6,14.5c2.6,0,3.2,2.6,2.7,4.8c-0.6,2.9-2.3,5.6-5,5.6c-2.6,0-3.2-2.4-2.7-4.7
			C106.4,16.3,108.2,14.5,110.6,14.5L110.6,14.5z"/>
		<path class="st0" d="M116.8,25.7c0.4,0,0.9-0.1,1.3-0.1c0.4,0,0.9,0.1,1.3,0.1l1.1-5.6h0.1c0.3,0.7,0.6,1.5,0.8,1.9l1.4,3.7
			c0.5,0,1.1-0.1,1.6-0.1c0.5,0,1.1,0.1,1.6,0.1l-0.5-1.1c-0.7-1.6-1.5-3.2-2.1-4.9c1.7-0.3,3-1.4,3.3-3.1c0.2-1.2-0.1-2-1-2.5
			c-0.7-0.4-1.9-0.3-2.8-0.3h-3.7L116.8,25.7L116.8,25.7z M121.6,14.7c1.1,0,2.4-0.1,2.4,1.3c0,0.4,0,0.6-0.1,0.9
			c-0.3,1.8-1.4,2.7-3.2,2.5L121.6,14.7L121.6,14.7z"/>
		<path class="st1" d="M139.5,20.3c-0.4,0-0.9,0.1-1.3,0.1c-0.4,0-0.9-0.1-1.3-0.1l-0.8,4.1c-0.5,0.2-1.1,0.5-2,0.5
			c-2.6,0-3.8-1.8-3.2-4.8c0.6-2.9,2.5-5.6,5.4-5.6c1.4,0,2.5,0.6,3.1,1.8h0.2c0.2-0.6,0.5-1.2,0.8-1.8c-1.2-0.7-2.5-1.1-4-1.1
			c-4,0-7.6,2.2-8.5,6.5c-0.8,4.1,2.1,5.9,5.8,5.9c1.5,0,3.1-0.3,4.8-0.8L139.5,20.3L139.5,20.3z"/>
		<path class="st1" d="M141.3,25.7c0.4,0,0.9-0.1,1.3-0.1c0.4,0,0.9,0.1,1.3,0.1l2.3-11.9c-0.4,0-0.9,0.1-1.3,0.1
			c-0.4,0-0.9-0.1-1.3-0.1L141.3,25.7L141.3,25.7z"/>
		<path class="st0" d="M153.4,22.1c0.2,1.2,0.4,2.4,0.5,3.6c0.5,0,1-0.1,1.5-0.1c0.5,0,1,0.1,1.5,0.1l-2.5-12.1
			c-0.2,0-0.4,0.1-0.7,0.1c-0.2,0-0.4,0-0.7-0.1l-7.3,12.1c0.3,0,0.6-0.1,0.8-0.1c0.3,0,0.5,0,0.8,0.1c0.6-1.2,1.2-2.3,1.9-3.6
			H153.4L153.4,22.1z M150,21l2.4-4.1l0.8,4.1H150L150,21z"/>
	</g>
</g>
</svg>
