<svg id="Layer_2" data-name="Layer 2" xmlns="http://www.w3.org/2000/svg" viewBox="0 0 329.76 59.85"><defs><style>.cls-1{fill:#005697;}.cls-2{fill:#fff;}</style></defs><path id="Path_250" data-name="Path 250" class="cls-1" d="M49,8.61h0L98.82,58.89H58.76a8.52,8.52,0,0,0-4.36.83A6.43,6.43,0,0,0,51.68,63L49,68.45,46.32,63a6.43,6.43,0,0,0-2.72-3.27,8.55,8.55,0,0,0-4.37-.83h-40L49,8.61Z" transform="translate(0.82 -8.61)"/><path id="Path_251" data-name="Path 251" class="cls-2" d="M47.56,53.64a31.91,31.91,0,0,1-10.25,1.72c-9.73,0-14-5-14-11.31,0-7.28,5.77-11.63,14.19-11.63a23.47,23.47,0,0,1,9.94,1.95v5.15h-.75a12.62,12.62,0,0,0-8.37-3c-5,0-8.1,2.76-8.1,7.21,0,3.93,2,7.58,8.3,7.35a11.33,11.33,0,0,0,2.39-.37V46.69H35.73V42.55H47.56Z" transform="translate(0.82 -8.61)"/><path id="Path_252" data-name="Path 252" class="cls-2" d="M68.92,34.19a14,14,0,0,0-6.84-1.3H50.7v22h6.63V47.7h4.59a14.08,14.08,0,0,0,7-1.42,6.75,6.75,0,0,0,3.51-6.46A5.9,5.9,0,0,0,68.92,34.19Zm-3.34,6A2.89,2.89,0,0,1,63.8,43a8.24,8.24,0,0,1-3.22.54H57.33V37h3.25a8.38,8.38,0,0,1,3.22.45,2.74,2.74,0,0,1,1.78,2.72Z" transform="translate(0.82 -8.61)"/><g id="Group_220" data-name="Group 220"><g id="Group_219" data-name="Group 219"><g id="Group_218" data-name="Group 218"><path id="Path_253" data-name="Path 253" d="M189.42,50.59a3.41,3.41,0,0,1-2.25-.63,4.46,4.46,0,0,1-1.25-3.69c0-2.82,1.4-4.62,3.69-4.6a5,5,0,0,1,2.51.72v7.28A4.56,4.56,0,0,1,189.42,50.59Zm7.81-12.32h-4.95l-.09.8a7.27,7.27,0,0,0-4.45-1.3c-3.46,0-7,2.76-7.09,8.59-.06,5.14,2.74,8.38,7.15,8.28a6.47,6.47,0,0,0,4.32-1.7v.31a6.59,6.59,0,0,1-.2,1.77c-.49,1.82-2.16,2.4-4.28,2.36A13.35,13.35,0,0,1,183,56.27h-.62v4.21a28.65,28.65,0,0,0,6,.71c3.08,0,6.77-.58,8.22-4.24a10.78,10.78,0,0,0,.63-3.94Z" transform="translate(0.82 -8.61)"/><path id="Path_254" data-name="Path 254" d="M128.27,53.75a18.4,18.4,0,0,1-8.4,1.61,10.78,10.78,0,0,1-11.55-10,10,10,0,0,1,0-1.55A11,11,0,0,1,118.93,32.4a10.51,10.51,0,0,1,1.12,0A16.86,16.86,0,0,1,128.2,34V39h-.61a9,9,0,0,0-6.88-2.47A6.74,6.74,0,0,0,114,43.38c0,.17,0,.33,0,.5,0,4,1.75,7.35,6.68,7.32a6.45,6.45,0,0,0,2-.31V46.81h-3.23V42.66h8.75Z" transform="translate(0.82 -8.61)"/><path id="Path_255" data-name="Path 255" d="M161.28,46.59c0,3.2-1,5.09-3.42,5.09s-3.41-1.89-3.41-5.09,1-5.09,3.41-5.09S161.28,43.39,161.28,46.59Zm5.28,0a8.7,8.7,0,1,0-8.7,8.82,8,8,0,0,0,8.71-7.33,8.25,8.25,0,0,0,0-1.49Z" transform="translate(0.82 -8.61)"/><path id="Path_256" data-name="Path 256" d="M179.71,43.39h-.44A6.87,6.87,0,0,0,177,43a5.42,5.42,0,0,0-3.21,1V54.9H168.7V38.28h5.11v2.44a9.3,9.3,0,0,1,2.42-2,5.47,5.47,0,0,1,2.29-.48,7.84,7.84,0,0,1,1.19.06Z" transform="translate(0.82 -8.61)"/><path id="Path_257" data-name="Path 257" d="M250.74,39.84c-.17-5.26-3.74-7-8.46-7h-8.93V43.6h-6.48v4.14h6.48v7.17h5.43V47.74h3.08C248.25,47.74,250.87,44.14,250.74,39.84Zm-10.5,3.76h-1.46V37h2.06c2.57,0,4.26.7,4.26,3.06,0,3-2.21,3.51-4.86,3.51Z" transform="translate(0.82 -8.61)"/><path id="Path_258" data-name="Path 258" d="M277.91,55.36c-5.51,0-9.44-2.75-9.44-8.73,0-5.81,3.76-8.86,9.28-8.86a12.08,12.08,0,0,1,5.56,1.33v4.53h-.73A6.09,6.09,0,0,0,278,41.58c-2.57,0-4.23,1.83-4.23,5.06s1.67,4.9,4.31,4.9a5.86,5.86,0,0,0,4.53-2h.72v4.53A11.6,11.6,0,0,1,277.91,55.36Z" transform="translate(0.82 -8.61)"/><path id="Path_259" data-name="Path 259" d="M291,54.9h-5.11V38.28H291Zm0-19h-5.11V31.88H291Z" transform="translate(0.82 -8.61)"/><path id="Path_260" data-name="Path 260" d="M304.78,35.81h-.58a4.3,4.3,0,0,0-2-.58,1.78,1.78,0,0,0-1.43.54,3.07,3.07,0,0,0-.46,2v.47h4.51v3.59h-4.35v13h-5.11v-13H293V38.28h2.37v-1a5.54,5.54,0,0,1,1.28-4.13,6,6,0,0,1,4.49-1.47,14.72,14.72,0,0,1,3.68.4Z" transform="translate(0.82 -8.61)"/><path id="Path_261" data-name="Path 261" d="M323.53,55.36c-5.49,0-9.42-2.75-9.42-8.73,0-5.81,3.75-8.86,9.27-8.86a12.08,12.08,0,0,1,5.56,1.33v4.53h-.72a6.09,6.09,0,0,0-4.62-2.05c-2.57,0-4.22,1.83-4.22,5.06s1.66,4.9,4.3,4.9a5.86,5.86,0,0,0,4.53-2h.73v4.53A11.69,11.69,0,0,1,323.53,55.36Z" transform="translate(0.82 -8.61)"/><path id="Path_262" data-name="Path 262" d="M312,54.9h-5.12V38.28H312Zm0-19h-5.12V31.88H312Z" transform="translate(0.82 -8.61)"/><path id="Path_263" data-name="Path 263" d="M205.78,54.9h-5.12V38.28h5.12Zm0-19h-5.12V31.88h5.12Z" transform="translate(0.82 -8.61)"/><path id="Path_264" data-name="Path 264" d="M147.2,46.82a10.63,10.63,0,0,0-1.49-5.9,7.53,7.53,0,0,0-6.38-3.14,8.17,8.17,0,0,0-8.93,7.36,8.37,8.37,0,0,0,0,1.66c0,5.66,4.29,8.56,9.87,8.56a12.56,12.56,0,0,0,6.64-1.67v-4h-.57a8.94,8.94,0,0,1-5.63,2c-3.56,0-4.94-1.85-5.08-3.82h11.55Zm-11.56-2a4,4,0,0,1,.7-2.22,3.09,3.09,0,0,1,2.79-1.33c1.94,0,3,1.42,3,3.55Z" transform="translate(0.82 -8.61)"/><path id="Path_265" data-name="Path 265" d="M258.44,51.75c-1.71.14-2.66-.37-2.7-1.84-.05-1.64,1.3-2.27,3.4-2.56.8-.11,1.54-.18,2.24-.25v3.46A5.69,5.69,0,0,1,258.44,51.75Zm2.94,3.14h5V43.57a5.06,5.06,0,0,0-1.92-4.4,10,10,0,0,0-6-1.4,30.89,30.89,0,0,0-6,.81v4h.47a9.49,9.49,0,0,1,4.62-1.3,6.13,6.13,0,0,1,2.84.44,2.08,2.08,0,0,1,1.07,2.2V44c-1.5.09-2.94.23-4.34.41-4.62.62-6.47,2.57-6.47,5.75a5.12,5.12,0,0,0,5,5.22h.25a6.93,6.93,0,0,0,5.49-1.91Z" transform="translate(0.82 -8.61)"/><path id="Path_266" data-name="Path 266" d="M216.2,51.75c-1.71.14-2.66-.37-2.7-1.84-.05-1.64,1.3-2.27,3.39-2.56.8-.11,1.54-.18,2.24-.25v3.46A5.62,5.62,0,0,1,216.2,51.75Zm2.93,3.14h5V43.57a5.06,5.06,0,0,0-1.92-4.4,10.79,10.79,0,0,0-6.26-1.4,32,32,0,0,0-6.24.81v4h.47a10.28,10.28,0,0,1,4.81-1.3,7.44,7.44,0,0,1,3.07.44,2.1,2.1,0,0,1,1.07,2.2V44c-1.5.09-2.94.23-4.34.41-4.6.62-6.48,2.57-6.48,5.75a5.12,5.12,0,0,0,5,5.22h.26a6.94,6.94,0,0,0,5.48-1.91Z" transform="translate(0.82 -8.61)"/></g></g></g></svg>