<?xml version="1.0" encoding="utf-8"?>
<!-- Generator: Adobe Illustrator 25.1.0, SVG Export Plug-In . SVG Version: 6.00 Build 0)  -->
<svg version="1.1" xmlns="http://www.w3.org/2000/svg" xmlns:xlink="http://www.w3.org/1999/xlink" x="0px" y="0px"
	 viewBox="0 0 544 103.9" style="enable-background:new 0 0 544 103.9;" xml:space="preserve">
<style type="text/css">
	.st0{fill:#F36E24;}
</style>
<g id="Layer_1">
	<g>
		<g>
			<path class="st0" d="M9.6,100.5V6h18.1v37.7h25.5V6h18.1v94.5H53.2V59.7H27.7v40.8H9.6z"/>
			<path class="st0" d="M88.7,100.5L112.1,6h23.2l22.8,94.5h-17.3l-4.6-19.9h-25l-5.1,19.9H88.7z M114.5,64.7h17.9l-8.8-38.2h-0.3
				L114.5,64.7z"/>
			<path class="st0" d="M216.8,100.5l-15.7-38.5h-8.6v38.5h-18.1V6h26.2c21.7,0,32.1,10.5,32.1,28.3c0,11.8-4.2,20.3-14.3,24.1
				l17.8,42.1H216.8z M192.5,47.1h9.3c8,0,12.8-3.9,12.8-13.1c0-9.2-4.8-13.1-12.8-13.1h-9.3V47.1z"/>
			<path class="st0" d="M247.6,6h17.8L282,73.6h0.3L298.7,6h17.7l-24.1,94.5h-20.5L247.6,6z"/>
			<path class="st0" d="M333,100.5V6h49.5v16h-31.4v21.7h24v16h-24v24.9h32.7v16H333z"/>
			<path class="st0" d="M444.9,32.4c-3-8.9-6.9-12.7-13.2-12.7c-6.4,0-9.9,3.9-9.9,10.3c0,14.3,40.3,15.3,40.3,44.9
				c0,16.2-11.1,27-30.1,27c-14.7,0-26-8-30.9-26.6l17.8-3.8c2.1,11.4,8.6,15.4,14,15.4c6.3,0,11.1-4.2,11.1-11.3
				c0-17.8-40.3-18.1-40.3-44.5c0-16.2,9.7-26.4,28.4-26.4c16.1,0,25.9,9.6,29.1,22.9L444.9,32.4z"/>
			<path class="st0" d="M539,6v16h-21.1v78.5h-18.1V22h-21.1V6H539z"/>
		</g>
	</g>
</g>
<g id="Layer_2">
</g>
</svg>
