<?xml version="1.0" encoding="utf-8"?>
<!-- Generator: Adobe Illustrator 25.1.0, SVG Export Plug-In . SVG Version: 6.00 Build 0)  -->
<svg version="1.1" id="Layer_2_1_" xmlns="http://www.w3.org/2000/svg" xmlns:xlink="http://www.w3.org/1999/xlink" x="0px" y="0px"
	 viewBox="0 0 64.7 43.6" style="enable-background:new 0 0 64.7 43.6;" xml:space="preserve">
<style type="text/css">
	.st0{clip-path:url(#SVGID_2_);}
	.st1{fill:#E1251B;}
	.st2{fill:#FFFFFF;}
</style>
<g>
	<defs>
		<rect id="SVGID_1_" x="2.3" y="2.6" width="60.4" height="38.8"/>
	</defs>
	<clipPath id="SVGID_2_">
		<use xlink:href="#SVGID_1_"  style="overflow:visible;"/>
	</clipPath>
	<g class="st0">
		<path class="st1" d="M32.5,41.4c16.7,0,30.2-8.7,30.2-19.4c0-10.7-13.5-19.4-30.2-19.4C15.8,2.6,2.3,11.3,2.3,22
			C2.3,32.7,15.8,41.4,32.5,41.4"/>
	</g>
	<g class="st0">
		<polygon class="st2" points="22.9,11.1 14.5,31.8 8.4,31.8 16.8,11.1 		"/>
	</g>
	<g class="st0">
		<path class="st2" d="M47.1,17.1c0.4-1,0.6-1.4,1.9-1.4c1.2,0,1,0.6,0.7,1.4l-1.4,3.3h-2.5L47.1,17.1z M53.3,11.1h-5.9
			c-4,0-5.3,3.1-5.3,3.1L35,31.8h6.1l2.7-6.4h2.5l-2.6,6.4h6.1l6.8-16.9C57.7,12.1,55.8,11.1,53.3,11.1"/>
	</g>
	<g class="st0">
		<path class="st2" d="M26.9,26.9c-1.3,0-1.8-0.5-1.2-1.8l2.9-7.4c0,0,0.5-1.3,1.9-1.3l8.2,0l2.2-5.3c0,0-10.6,0-12.5,0
			c-3.3,0-4.5,3.1-4.5,3.1l-5.5,13.4c-1,2.4,0.4,4.3,2.7,4.3h11.3l4.6-11.5h-7l-1.7,4.1h2.3l-1,2.4H26.9z"/>
	</g>
	<g class="st0">
		<path class="st2" d="M54.3,30.5c0,0.7-0.5,1.1-1.1,1.1v0c-0.6,0-1.1-0.5-1.1-1.1c0-0.7,0.5-1.1,1.1-1.1
			C53.8,29.4,54.3,29.8,54.3,30.5 M54.7,30.5c0-0.9-0.7-1.5-1.5-1.5c-0.8,0-1.5,0.5-1.5,1.5c0,0.9,0.7,1.5,1.5,1.5
			C54,32,54.7,31.4,54.7,30.5 M53,30.6h0.2l0.4,0.7h0.4l-0.4-0.7c0.2,0,0.4-0.1,0.4-0.4c0-0.4-0.2-0.5-0.7-0.5h-0.6v1.6H53V30.6z
			 M53,30.4V30h0.2c0.1,0,0.3,0,0.3,0.2c0,0.2-0.1,0.2-0.2,0.2H53z"/>
	</g>
</g>
</svg>
