<?xml version="1.0" encoding="utf-8"?>
<!-- Generator: Adobe Illustrator 25.1.0, SVG Export Plug-In . SVG Version: 6.00 Build 0)  -->
<svg version="1.1" id="Layer_1" xmlns="http://www.w3.org/2000/svg" xmlns:xlink="http://www.w3.org/1999/xlink" x="0px" y="0px"
	 viewBox="0 0 263.1 72.2" style="enable-background:new 0 0 263.1 72.2;" xml:space="preserve">
<style type="text/css">
	.st0{fill:#1D2D5C;}
	.st1{fill:#7BB6D8;}
	.st2{fill:#58595B;}
	.st3{fill:#FFFFFF;}
</style>
<g>
	<rect x="0" y="0" class="st0" width="19.3" height="33.7"/>
	<rect x="0" y="35.1" class="st0" width="19.3" height="28.9"/>
	<rect x="20.9" y="0" class="st1" width="35.8" height="33.7"/>
	<rect x="20.9" y="35.1" class="st0" width="35.8" height="28.9"/>
	<g>
		<path class="st0" d="M66.8,4.7H70V30h15.9v3H66.8V4.7z"/>
		<path class="st0" d="M94.2,8.8V33h-2.7V8.8H94.2z"/>
		<path class="st0" d="M112.9,26.4h-0.1l-8.8-12.9V33h-2.7V8.8h2.8l8.8,13.2l8.8-13.2h2.8V33h-2.7V13.4L112.9,26.4z"/>
		<path class="st0" d="M153.7,33h-2.9l-2.8-6.4h-13.1l-2.9,6.4h-2.8l11-24.3h2.6L153.7,33z M141.4,11.9l-5.5,12.3h11L141.4,11.9z"/>
		<path class="st0" d="M197.8,24.4c-0.7,1.8-1.7,3.3-3,4.7c-1.3,1.3-2.8,2.4-4.6,3.2c-1.8,0.8-3.7,1.2-5.9,1.2
			c-2.2,0-4.1-0.4-5.9-1.2c-1.8-0.8-3.3-1.8-4.5-3.2c-1.3-1.3-2.2-2.9-2.9-4.7c-0.7-1.8-1-3.6-1-5.6c0-2,0.3-3.8,1.1-5.6
			c0.7-1.8,1.7-3.3,3-4.7c1.3-1.3,2.8-2.4,4.6-3.2c1.8-0.8,3.7-1.2,5.9-1.2c2.2,0,4.1,0.4,5.9,1.2c1.8,0.8,3.3,1.8,4.5,3.2
			c1.3,1.3,2.2,2.9,2.9,4.7c0.7,1.8,1,3.6,1,5.6C198.8,20.8,198.5,22.6,197.8,24.4z M194.7,14.3c-0.6-1.4-1.3-2.7-2.3-3.7
			c-1-1.1-2.2-1.9-3.5-2.5c-1.4-0.6-2.9-0.9-4.5-0.9c-1.6,0-3.1,0.3-4.5,0.9c-1.4,0.6-2.5,1.4-3.5,2.5c-1,1.1-1.7,2.3-2.3,3.7
			c-0.6,1.4-0.8,2.9-0.8,4.5c0,1.6,0.3,3.1,0.8,4.6c0.6,1.4,1.3,2.7,2.3,3.7c1,1.1,2.2,1.9,3.5,2.5c1.4,0.6,2.9,0.9,4.5,0.9
			c1.6,0,3.1-0.3,4.5-0.9c1.4-0.6,2.5-1.4,3.5-2.5c1-1.1,1.7-2.3,2.3-3.7c0.6-1.4,0.8-2.9,0.8-4.5S195.2,15.7,194.7,14.3z"/>
		<path class="st0" d="M221.6,8.8h2.7V33H222l-15.6-19.8V33h-2.7V8.8h2.6l15.2,19.4V8.8z"/>
		<path class="st0" d="M248.5,11.3h-14.7v8.2H247v2.5h-13.2v8.5h14.9V33H231V8.8h17.5V11.3z"/>
	</g>
	<g>
		<path class="st2" d="M76.1,61.4c-0.3,0.3-0.7,0.5-1.1,0.7c-0.4,0.2-0.8,0.3-1.3,0.4c-0.4,0.1-0.9,0.2-1.5,0.2
			c-0.9,0-1.7-0.2-2.4-0.5c-0.7-0.3-1.4-0.8-1.9-1.3c-0.5-0.6-1-1.2-1.3-2c-0.3-0.8-0.5-1.6-0.5-2.5c0-0.9,0.2-1.7,0.5-2.4
			c0.3-0.8,0.7-1.4,1.3-2c0.5-0.6,1.2-1,1.9-1.3c0.7-0.3,1.6-0.5,2.5-0.5c0.6,0,1,0,1.5,0.1c0.4,0.1,0.9,0.2,1.2,0.4
			c0.4,0.2,0.7,0.4,1.1,0.6c0.3,0.2,0.6,0.5,0.9,0.8l-0.9,1c-0.5-0.5-1.1-0.9-1.7-1.2c-0.6-0.3-1.3-0.5-2.1-0.5
			c-0.7,0-1.3,0.1-1.9,0.4c-0.6,0.3-1.1,0.6-1.5,1.1c-0.4,0.4-0.7,1-1,1.6c-0.2,0.6-0.4,1.3-0.4,2s0.1,1.4,0.4,2
			c0.2,0.6,0.6,1.1,1,1.6c0.4,0.4,0.9,0.8,1.5,1.1c0.6,0.3,1.2,0.4,1.9,0.4c0.8,0,1.5-0.2,2.1-0.5c0.6-0.3,1.2-0.7,1.8-1.3l0.9,0.9
			C76.8,60.8,76.5,61.1,76.1,61.4z"/>
		<path class="st2" d="M103.1,62.4h-1.5l-1.4-3.2h-6.6l-1.4,3.2h-1.4l5.5-12.2h1.3L103.1,62.4z M96.9,51.9L94.1,58h5.5L96.9,51.9z"
			/>
		<path class="st2" d="M126.4,55.9c-0.3,0.5-0.6,0.9-1,1.2c-0.4,0.3-0.9,0.6-1.5,0.8c-0.6,0.2-1.2,0.3-1.8,0.3h-2.9v4.3h-1.4V50.3
			h4.5c0.7,0,1.3,0.1,1.9,0.3c0.6,0.2,1,0.4,1.4,0.8c0.4,0.3,0.7,0.7,0.9,1.2c0.2,0.5,0.3,1,0.3,1.6
			C126.8,54.8,126.7,55.4,126.4,55.9z M124.5,52.3c-0.6-0.4-1.4-0.7-2.4-0.7h-3.1v5.3h3c0.5,0,0.9-0.1,1.4-0.2
			c0.4-0.1,0.8-0.3,1.1-0.5c0.3-0.2,0.5-0.5,0.7-0.8c0.2-0.3,0.2-0.7,0.2-1.1C125.4,53.4,125.1,52.7,124.5,52.3z"/>
		<path class="st2" d="M143.1,50.3v12.1h-1.4V50.3H143.1z"/>
		<path class="st2" d="M163.5,62.4h-1.4V51.6h-4.1v-1.3h9.5v1.3h-4.1V62.4z"/>
		<path class="st2" d="M192.1,62.4h-1.5l-1.4-3.2h-6.6l-1.4,3.2h-1.4l5.5-12.2h1.3L192.1,62.4z M186,51.9l-2.8,6.2h5.5L186,51.9z"/>
		<path class="st2" d="M206.8,50.3h1.4v10.8h6.8v1.3h-8.2V50.3z"/>
	</g>
	<path class="st3" d="M26.7,22.7"/>
	<path class="st3" d="M36.1,10.9"/>
	<path class="st3" d="M36.5,10.5"/>
</g>
</svg>
