<?xml version="1.0" encoding="utf-8"?>
<!-- Generator: Adobe Illustrator 25.1.0, SVG Export Plug-In . SVG Version: 6.00 Build 0)  -->
<svg version="1.1" id="Layer_2_1_" xmlns="http://www.w3.org/2000/svg" xmlns:xlink="http://www.w3.org/1999/xlink" x="0px" y="0px"
	 viewBox="0 0 99 60" style="enable-background:new 0 0 99 60;" xml:space="preserve">
<style type="text/css">
	.st0{fill:#D91A32;}
	.st1{fill:#FFFFFF;}
</style>
<g>
	<g>
		<g>
			<g>
				<polygon class="st0" points="51.3,49.9 12.4,30.4 51.3,11 90.2,30.4 				"/>
				<g>
					<path class="st1" d="M30.7,36.7c3.2-0.1,5.2-2.8,5.2-6.3c0-3.9-1.9-6.3-5.2-6.4c-3.3,0-5.2,2.6-5.2,6.4
						C25.5,34,27.6,36.8,30.7,36.7z"/>
					<path class="st1" d="M43.3,36.4L41,31.6v4.7h-3.5V24.4h5.1c0.9,0,1.6,0.2,2.4,0.8c0.8,0.6,1.4,1.7,1.4,2.8c0,1.6-0.9,2.3-2.1,3
						l2.5,5.4H43.3z"/>
					<g>
						<path class="st0" d="M30.7,33.7c0.8,0,1.3-1.1,1.3-3.3c0-2.1-0.2-3.2-1.3-3.2c-1,0-1.3,1.3-1.3,3.2
							C29.4,32.2,29.7,33.6,30.7,33.7z"/>
						<path class="st0" d="M41,29.7v-2.8c0,0,0.4-0.1,0.8,0.2c0.4,0.3,0.6,0.7,0.6,1.2c0,0.5-0.3,0.9-0.6,1.3
							C41.6,29.7,41,29.7,41,29.7z"/>
					</g>
					<polygon class="st1" points="54.4,24.5 57.8,24.5 55.2,30 57.9,36.4 54.7,36.4 51.9,31.1 52,31.1 52,36.4 48.5,36.4 48.5,24.5 
						52,24.5 52,29.3 52,29.3 					"/>
					<rect x="59.7" y="24.4" class="st1" width="3.3" height="11.9"/>
					<polygon class="st1" points="65.6,24.5 69,24.5 71.2,29.4 71.2,24.5 74.7,24.5 74.7,36.4 71.1,36.4 69,31.5 69,36.4 65.6,36.4 
											"/>
				</g>
				<path class="st1" d="M49.2,43.6c0-1.2,0.9-2.1,2.1-2.1c1.2,0,2.1,0.9,2.1,2.1c0,1.2-0.9,2.1-2.1,2.1
					C50.1,45.7,49.2,44.8,49.2,43.6z"/>
				<path class="st0" d="M49.5,43.6c0,1,0.8,1.8,1.8,1.8c1,0,1.8-0.8,1.8-1.8c0-1-0.8-1.8-1.8-1.8C50.3,41.8,49.5,42.6,49.5,43.6z"
					/>
				<path class="st1" d="M51.8,44.6l-0.4-0.6h-0.6v0.6l-0.4,0l0-2.1h1c0.4,0,0.8,0.2,0.8,0.6c0,0.5-0.2,0.6-0.5,0.6l0.5,0.8
					L51.8,44.6z"/>
				<path class="st0" d="M50.8,42.9v0.6h0.3c0.3,0,0.7,0.1,0.7-0.3c0-0.3-0.2-0.3-0.5-0.3H50.8z"/>
			</g>
		</g>
	</g>
</g>
</svg>
