<?xml version="1.0" encoding="utf-8"?>
<!-- Generator: Adobe Illustrator 27.1.1, SVG Export Plug-In . SVG Version: 6.00 Build 0)  -->
<svg version="1.1" id="Layer_1" xmlns="http://www.w3.org/2000/svg" xmlns:xlink="http://www.w3.org/1999/xlink" x="0px" y="0px"
	 viewBox="0 0 102.09 71.16" style="enable-background:new 0 0 102.09 71.16;" xml:space="preserve">
<style type="text/css">
	.st0{fill:#272625;}
</style>
<g>
	<g>
		<g>
			<g>
				<path class="st0" d="M47.96,7.85l-0.33,1.01c-0.12-0.08-0.27-0.17-0.43-0.26c-0.16-0.09-0.33-0.18-0.51-0.26
					c-0.18-0.08-0.35-0.15-0.52-0.2c-0.17-0.05-0.32-0.08-0.45-0.08l-0.74,0L45,15.09c0.01,0.18,0.05,0.33,0.12,0.45
					c0.07,0.12,0.15,0.21,0.23,0.29c0.09,0.09,0.2,0.16,0.32,0.22l0,0.09l-3.2,0l0-0.07c0.12-0.07,0.23-0.14,0.33-0.23
					c0.09-0.08,0.17-0.19,0.24-0.31c0.07-0.13,0.1-0.28,0.1-0.47l0-7l-0.75,0c-0.13,0-0.28,0.03-0.45,0.08
					c-0.17,0.05-0.34,0.12-0.52,0.2c-0.18,0.08-0.35,0.17-0.51,0.26c-0.16,0.09-0.31,0.18-0.43,0.26l-0.33-1.01L47.96,7.85z"/>
				<path class="st0" d="M51.04,15.53c0.07,0.12,0.14,0.21,0.22,0.29c0.09,0.09,0.2,0.16,0.32,0.21l0,0.09l-2.88,0l0-0.09
					c0.11-0.05,0.22-0.12,0.31-0.21c0.08-0.07,0.16-0.17,0.23-0.29c0.07-0.12,0.11-0.26,0.13-0.42l-0.01-6.27
					c-0.02-0.16-0.06-0.3-0.13-0.42c-0.07-0.12-0.15-0.21-0.23-0.29c-0.09-0.09-0.19-0.16-0.31-0.21l0-0.09l2.22,0l0,2.95
					c0.19-0.11,0.41-0.19,0.67-0.24c0.26-0.05,0.56-0.08,0.91-0.08c0.3,0,0.6,0.04,0.89,0.11c0.29,0.07,0.55,0.2,0.77,0.37
					c0.23,0.17,0.41,0.4,0.54,0.7c0.14,0.29,0.2,0.66,0.2,1.1l0,2.33c0.01,0.17,0.05,0.32,0.12,0.44c0.07,0.12,0.15,0.22,0.23,0.29
					c0.09,0.09,0.2,0.16,0.32,0.22l0,0.09l-2.22,0l0-3.39l0-0.15c0-0.68-0.09-1.18-0.26-1.5c-0.17-0.32-0.43-0.48-0.79-0.48
					c-0.12,0-0.25,0.02-0.39,0.07c-0.13,0.05-0.27,0.11-0.4,0.2c-0.13,0.09-0.25,0.2-0.36,0.34c-0.11,0.14-0.19,0.29-0.24,0.46
					l0,3.44C50.93,15.27,50.97,15.41,51.04,15.53z"/>
				<path class="st0" d="M61.67,14.52c-0.24,0.49-0.58,0.88-1.04,1.16c-0.46,0.28-0.96,0.42-1.5,0.43c-0.39,0-0.76-0.07-1.11-0.22
					c-0.34-0.15-0.64-0.35-0.9-0.61c-0.26-0.26-0.46-0.56-0.61-0.9c-0.15-0.34-0.22-0.71-0.22-1.1c0-0.4,0.07-0.77,0.22-1.12
					s0.35-0.64,0.6-0.9c0.25-0.25,0.55-0.45,0.9-0.6c0.34-0.15,0.72-0.22,1.12-0.22c0.58,0,1.11,0.15,1.57,0.46s0.82,0.73,1.05,1.27
					c-0.63,0.29-1.26,0.57-1.88,0.86c-0.62,0.28-1.25,0.57-1.88,0.86c0.07,0.16,0.18,0.36,0.31,0.58c0.13,0.22,0.28,0.43,0.45,0.63
					c0.17,0.2,0.35,0.37,0.55,0.51c0.2,0.14,0.4,0.21,0.61,0.21c0.16,0,0.3-0.04,0.4-0.13c0.1-0.09,0.18-0.19,0.25-0.32
					c0.06-0.13,0.1-0.26,0.13-0.41s0.04-0.29,0.04-0.42c0-0.07,0-0.13-0.01-0.2c0-0.07-0.01-0.14-0.02-0.2L61.67,14.52z
					 M60.25,12.64c-0.07-0.17-0.17-0.37-0.28-0.58c-0.11-0.22-0.25-0.42-0.41-0.62c-0.16-0.2-0.33-0.36-0.52-0.5
					c-0.19-0.13-0.39-0.2-0.6-0.2c-0.18,0-0.33,0.04-0.44,0.12c-0.11,0.08-0.2,0.18-0.27,0.31c-0.07,0.12-0.11,0.26-0.13,0.41
					c-0.02,0.15-0.04,0.3-0.04,0.45c0,0.56,0.12,1.12,0.35,1.67L60.25,12.64z"/>
			</g>
		</g>
		<g>
			<path class="st0" d="M11.41,30.44c0.67-0.01,1.38-0.07,2.11-0.17c0.73-0.1,1.46-0.15,2.17-0.16c0.72,0,1.4,0.08,2.06,0.24
				c0.66,0.16,1.24,0.49,1.75,0.99c0.31,0.38,0.53,0.78,0.68,1.2c0.15,0.42,0.21,0.85,0.19,1.29c-0.02,0.43-0.11,0.86-0.28,1.29
				c-0.17,0.42-0.42,0.82-0.75,1.19c-0.43,0.5-0.99,0.93-1.66,1.29c-0.67,0.36-1.43,0.65-2.28,0.88c-0.86,0.23-1.8,0.39-2.84,0.49
				c-1.04,0.1-2.15,0.13-3.32,0.09c0.2-0.84,0.41-1.68,0.63-2.52c0.44,0.2,0.9,0.43,1.37,0.67c0.47,0.24,0.96,0.45,1.45,0.63
				c0.49,0.18,0.99,0.29,1.5,0.35c0.51,0.06,1.04,0,1.58-0.18c0.95-0.3,1.65-0.68,2.09-1.15c0.45-0.47,0.63-0.99,0.54-1.56
				c-0.05-0.38-0.19-0.69-0.45-0.92c-0.25-0.23-0.57-0.42-0.95-0.55c-0.38-0.13-0.8-0.22-1.27-0.26c-0.47-0.04-0.93-0.05-1.39-0.04
				c-0.46,0.01-0.91,0.03-1.33,0.07c-0.43,0.04-0.79,0.07-1.09,0.1c-1.56,0.13-2.77,0.03-3.65-0.34C7.41,33,6.79,32.39,6.45,31.52
				c-0.41-1.06-0.33-2.11,0.27-3.12c0.59-1.02,1.63-1.89,3.11-2.59c0.63-0.3,1.3-0.54,2.01-0.72c0.71-0.18,1.36-0.31,1.96-0.41
				c0.71-0.12,1.41-0.2,2.09-0.25c-0.13,0.68-0.25,1.35-0.37,2.03c-0.41-0.13-0.9-0.26-1.47-0.39c-0.57-0.14-1.25-0.28-2.05-0.44
				c-0.49,0.04-0.96,0.13-1.41,0.27c-0.45,0.14-0.87,0.31-1.25,0.52c-0.38,0.2-0.71,0.44-0.98,0.69c-0.27,0.26-0.48,0.53-0.62,0.82
				c-0.17,0.39-0.2,0.74-0.09,1.06c0.11,0.32,0.33,0.59,0.67,0.81c0.33,0.22,0.77,0.39,1.29,0.5
				C10.14,30.41,10.74,30.46,11.41,30.44z"/>
			<g>
				<path class="st0" d="M28.56,30.26c-0.46,0.55-1.03,0.94-1.71,1.19c-0.68,0.24-1.37,0.31-2.08,0.19
					c-0.52-0.08-0.99-0.25-1.41-0.5c-0.42-0.25-0.77-0.56-1.05-0.93c-0.28-0.37-0.48-0.78-0.6-1.24c-0.11-0.45-0.12-0.93-0.02-1.43
					c0.11-0.51,0.31-0.96,0.61-1.37c0.3-0.41,0.66-0.75,1.09-1.02c0.43-0.27,0.9-0.46,1.43-0.57c0.52-0.11,1.06-0.12,1.62-0.03
					c0.8,0.14,1.47,0.46,2,0.96c0.53,0.5,0.85,1.12,0.98,1.85c-0.94,0.19-1.87,0.38-2.79,0.59c-0.92,0.21-1.85,0.43-2.78,0.66
					c0.05,0.22,0.14,0.48,0.26,0.79c0.12,0.3,0.26,0.6,0.43,0.89c0.17,0.29,0.37,0.54,0.59,0.75c0.22,0.22,0.47,0.35,0.75,0.4
					c0.22,0.04,0.4,0.01,0.56-0.07c0.16-0.08,0.3-0.2,0.41-0.34c0.12-0.14,0.21-0.3,0.29-0.48c0.08-0.18,0.13-0.35,0.17-0.51
					c0.02-0.08,0.04-0.17,0.05-0.25c0.02-0.09,0.03-0.17,0.04-0.26C27.78,29.77,28.17,30.01,28.56,30.26z M27.27,27.57
					c-0.05-0.23-0.11-0.5-0.2-0.8c-0.09-0.3-0.2-0.59-0.35-0.87c-0.15-0.28-0.33-0.53-0.55-0.74c-0.22-0.21-0.47-0.34-0.76-0.39
					c-0.25-0.04-0.47-0.02-0.65,0.06c-0.18,0.08-0.34,0.19-0.47,0.33c-0.13,0.14-0.23,0.3-0.31,0.49c-0.08,0.19-0.14,0.37-0.18,0.56
					c-0.16,0.71-0.16,1.43,0,2.17C24.95,28.08,26.11,27.82,27.27,27.57z"/>
				<path class="st0" d="M29.94,32.67c-1.89,0.37-3.76,0.78-5.63,1.25c-0.14-0.15-0.28-0.3-0.43-0.44c1.88-0.47,3.77-0.89,5.66-1.26
					C29.67,32.37,29.81,32.52,29.94,32.67z"/>
				<path class="st0" d="M79.87,31.71c-0.66,0.28-1.35,0.38-2.06,0.3c-0.72-0.09-1.36-0.34-1.95-0.76
					c-0.43-0.31-0.77-0.66-1.03-1.08c-0.26-0.41-0.44-0.85-0.52-1.31c-0.09-0.46-0.08-0.92,0.02-1.37c0.1-0.46,0.31-0.89,0.62-1.28
					c0.32-0.41,0.7-0.73,1.15-0.96c0.45-0.23,0.93-0.37,1.43-0.42c0.5-0.05,1.01-0.01,1.53,0.12c0.52,0.13,1.01,0.37,1.46,0.7
					c0.66,0.48,1.11,1.07,1.37,1.75c0.25,0.69,0.27,1.39,0.05,2.1c-0.93-0.25-1.85-0.49-2.77-0.72c-0.92-0.23-1.85-0.44-2.78-0.65
					c-0.05,0.22-0.09,0.49-0.12,0.82c-0.03,0.32-0.04,0.65-0.01,0.98c0.02,0.33,0.09,0.64,0.19,0.94c0.1,0.29,0.27,0.52,0.5,0.69
					c0.18,0.13,0.35,0.19,0.53,0.19c0.18,0,0.35-0.04,0.52-0.12c0.17-0.08,0.33-0.18,0.47-0.3c0.15-0.13,0.27-0.25,0.38-0.38
					c0.05-0.06,0.11-0.13,0.16-0.2c0.05-0.07,0.1-0.14,0.15-0.21C79.39,30.92,79.63,31.32,79.87,31.71z M79.91,28.72
					c0.06-0.23,0.12-0.49,0.18-0.8c0.06-0.31,0.08-0.62,0.07-0.94c-0.01-0.32-0.06-0.62-0.16-0.91c-0.1-0.29-0.27-0.52-0.51-0.69
					c-0.21-0.15-0.41-0.23-0.61-0.24c-0.2-0.01-0.39,0.02-0.57,0.09c-0.18,0.07-0.34,0.17-0.5,0.3c-0.15,0.13-0.29,0.27-0.41,0.42
					c-0.46,0.56-0.79,1.21-0.97,1.94C77.6,28.15,78.76,28.43,79.91,28.72z"/>
				<path class="st0" d="M79.57,34.38c-1.86-0.52-3.73-0.98-5.6-1.4c-0.06-0.2-0.12-0.39-0.18-0.59c1.89,0.42,3.77,0.88,5.64,1.4
					C79.47,33.98,79.52,34.18,79.57,34.38z"/>
				<path class="st0" d="M39.9,24.85c0.05,0.54,0.1,1.08,0.13,1.62c0.03,0.54,0.08,1.08,0.13,1.62c0.02,0.24,0.05,0.47,0.08,0.7
					c0.03,0.23,0.08,0.45,0.17,0.64c0.08,0.2,0.2,0.37,0.34,0.53c0.15,0.15,0.36,0.27,0.63,0.36c0,0.04,0.01,0.08,0.01,0.13
					c-0.88,0.08-1.77,0.17-2.65,0.27c-0.21-0.16-0.41-0.31-0.62-0.47c-0.23,0.22-0.49,0.39-0.78,0.51c-0.29,0.12-0.6,0.2-0.9,0.24
					c-0.55,0.07-1.09,0.08-1.63,0.01c-0.54-0.07-1.04-0.22-1.48-0.44c-0.45-0.22-0.83-0.53-1.15-0.93
					c-0.32-0.39-0.53-0.87-0.63-1.44c-0.1-0.54-0.06-1.05,0.12-1.52c0.18-0.47,0.45-0.9,0.81-1.27c0.36-0.37,0.79-0.68,1.3-0.93
					c0.51-0.25,1.05-0.41,1.61-0.48c0.3-0.04,0.61-0.06,0.93-0.05c0.32,0.01,0.62,0.05,0.91,0.14c-0.01-0.12-0.04-0.25-0.09-0.39
					c-0.04-0.14-0.1-0.27-0.18-0.39c-0.07-0.12-0.17-0.21-0.3-0.27c-0.12-0.06-0.27-0.08-0.44-0.06c-0.23,0.03-0.46,0.11-0.69,0.24
					c-0.23,0.13-0.43,0.27-0.6,0.4c0.06-0.26,0.13-0.53,0.2-0.79c0.16-0.03,0.32-0.06,0.48-0.08c0.16-0.02,0.32-0.04,0.48-0.06
					c0.53-0.07,1.02-0.1,1.47-0.09c0.45,0.01,0.83,0.09,1.16,0.24c0.33,0.15,0.59,0.39,0.8,0.71C39.71,23.87,39.84,24.3,39.9,24.85z
					 M37.55,26.62c-0.07-0.56-0.13-1.12-0.2-1.68c-0.18-0.26-0.4-0.45-0.68-0.59c-0.28-0.14-0.59-0.19-0.93-0.14
					c-0.41,0.05-0.74,0.22-1,0.49c-0.26,0.27-0.45,0.59-0.58,0.95c-0.13,0.36-0.21,0.73-0.24,1.12c-0.03,0.39-0.02,0.73,0.03,1.01
					c0.04,0.27,0.12,0.59,0.24,0.95c0.12,0.36,0.28,0.7,0.48,1.02c0.2,0.31,0.45,0.57,0.74,0.77c0.29,0.2,0.62,0.27,0.99,0.22
					c0.38-0.05,0.7-0.2,0.96-0.44c0.25-0.24,0.43-0.54,0.53-0.89C37.77,28.49,37.66,27.56,37.55,26.62z"/>
				<path class="st0" d="M43.46,23.26c0.07,0.31,0.23,0.55,0.46,0.72c0.24,0.17,0.52,0.31,0.86,0.41c0.34,0.1,0.72,0.17,1.12,0.22
					c0.41,0.05,0.82,0.1,1.24,0.17c0.41,0.06,0.82,0.14,1.21,0.23c0.39,0.09,0.75,0.23,1.05,0.42c0.31,0.19,0.55,0.43,0.74,0.72
					c0.18,0.29,0.28,0.67,0.28,1.12c0,0.47-0.1,0.88-0.31,1.23c-0.21,0.36-0.49,0.65-0.82,0.89c-0.34,0.24-0.71,0.42-1.13,0.55
					c-0.42,0.13-0.85,0.21-1.28,0.22c-0.76,0.03-1.52-0.05-2.29-0.24c-0.77-0.19-1.5-0.43-2.2-0.74c0.11-0.32,0.27-0.64,0.46-0.97
					c0.19-0.33,0.38-0.65,0.57-0.96c0.24,0.33,0.49,0.66,0.75,0.98c0.26,0.32,0.55,0.6,0.86,0.86c0.31,0.25,0.65,0.45,1.02,0.6
					c0.37,0.14,0.79,0.21,1.27,0.19c0.42-0.01,0.8-0.15,1.13-0.4c0.33-0.25,0.5-0.59,0.49-1.03c-0.01-0.47-0.24-0.8-0.71-0.99
					c-0.27-0.12-0.59-0.21-0.95-0.26c-0.36-0.05-0.74-0.09-1.13-0.14c-0.39-0.04-0.79-0.1-1.19-0.17c-0.4-0.07-0.79-0.19-1.16-0.36
					c-0.43-0.2-0.79-0.47-1.08-0.8c-0.29-0.33-0.46-0.72-0.49-1.18c-0.04-0.45,0.05-0.85,0.26-1.2c0.21-0.35,0.49-0.64,0.84-0.88
					c0.35-0.24,0.75-0.43,1.19-0.56c0.44-0.13,0.89-0.21,1.33-0.23c0.64-0.03,1.29,0.03,1.92,0.17c0.63,0.14,1.22,0.36,1.76,0.65
					c-0.2,0.25-0.38,0.51-0.56,0.78c-0.17,0.27-0.35,0.53-0.53,0.8c-0.14-0.04-0.28-0.08-0.42-0.12c-0.14-0.31-0.29-0.58-0.45-0.83
					c-0.16-0.25-0.35-0.46-0.57-0.63c-0.22-0.17-0.48-0.3-0.78-0.38c-0.3-0.08-0.66-0.12-1.07-0.09c-0.17,0.01-0.36,0.03-0.57,0.08
					c-0.21,0.04-0.39,0.11-0.56,0.2c-0.17,0.09-0.31,0.21-0.42,0.35c-0.11,0.14-0.16,0.3-0.15,0.5
					C43.46,23.2,43.46,23.23,43.46,23.26z"/>
				<path class="st0" d="M56.69,21.89c0.64,0.03,1.24,0.17,1.79,0.43c0.55,0.26,1.02,0.59,1.4,1c0.39,0.41,0.68,0.87,0.87,1.39
					c0.19,0.52,0.26,1.07,0.21,1.64c-0.05,0.56-0.21,1.08-0.48,1.56c-0.27,0.48-0.62,0.89-1.04,1.24c-0.42,0.35-0.91,0.61-1.44,0.79
					c-0.54,0.18-1.1,0.26-1.68,0.23c-0.6-0.03-1.15-0.16-1.67-0.39c-0.52-0.23-0.97-0.54-1.36-0.92c-0.39-0.38-0.7-0.83-0.92-1.33
					c-0.22-0.5-0.34-1.04-0.33-1.62c0-0.57,0.12-1.11,0.37-1.61c0.24-0.5,0.57-0.94,1-1.3c0.43-0.37,0.92-0.65,1.48-0.85
					C55.44,21.94,56.05,21.86,56.69,21.89z M57.54,29.8c0.24,0.01,0.44-0.04,0.6-0.15c0.16-0.12,0.3-0.26,0.41-0.44
					c0.11-0.18,0.18-0.37,0.23-0.59c0.05-0.21,0.08-0.41,0.09-0.59c0.02-0.26,0-0.58-0.06-0.97c-0.06-0.38-0.15-0.79-0.27-1.21
					c-0.12-0.43-0.28-0.85-0.47-1.27c-0.19-0.42-0.41-0.8-0.67-1.14c-0.25-0.34-0.54-0.62-0.86-0.84c-0.32-0.22-0.66-0.33-1.02-0.35
					c-0.28-0.01-0.52,0.04-0.71,0.15c-0.19,0.11-0.34,0.25-0.45,0.43c-0.11,0.18-0.19,0.38-0.23,0.6c-0.05,0.22-0.07,0.44-0.08,0.65
					c-0.01,0.28,0.03,0.61,0.1,0.99c0.07,0.39,0.19,0.79,0.34,1.2c0.15,0.42,0.33,0.83,0.54,1.25c0.21,0.41,0.44,0.79,0.7,1.12
					c0.26,0.33,0.54,0.61,0.83,0.82C56.87,29.67,57.19,29.78,57.54,29.8z"/>
				<path class="st0" d="M65.35,30.03c0.08,0.19,0.18,0.35,0.3,0.49c0.12,0.15,0.27,0.28,0.46,0.39c-0.01,0.04-0.01,0.08-0.02,0.12
					c-1.46-0.2-2.91-0.37-4.37-0.51c0-0.04,0.01-0.08,0.01-0.13c0.18-0.05,0.35-0.14,0.5-0.26c0.14-0.09,0.26-0.22,0.39-0.38
					c0.12-0.16,0.21-0.36,0.26-0.6c0.19-1.77,0.38-3.53,0.56-5.3c0-0.24-0.05-0.45-0.14-0.64c-0.1-0.18-0.2-0.34-0.33-0.46
					c-0.13-0.15-0.29-0.26-0.47-0.35c0-0.04,0.01-0.08,0.01-0.13c1.21,0.12,2.42,0.25,3.62,0.41c-0.04,0.3-0.08,0.59-0.11,0.89
					c0.31-0.21,0.66-0.38,1.04-0.49c0.38-0.11,0.83-0.14,1.33-0.07c0.56,0.08,1.06,0.21,1.49,0.37c0.44,0.16,0.8,0.4,1.09,0.7
					c0.29,0.3,0.48,0.68,0.57,1.14c0.09,0.45,0.08,1.01-0.04,1.67c-0.21,1.14-0.41,2.27-0.61,3.41c-0.02,0.24,0.01,0.46,0.09,0.64
					c0.07,0.19,0.16,0.35,0.27,0.48c0.11,0.15,0.25,0.28,0.42,0.39c-0.01,0.04-0.02,0.08-0.02,0.12c-1.45-0.28-2.91-0.52-4.37-0.74
					c0.01-0.04,0.01-0.08,0.02-0.12c0.2-0.04,0.37-0.12,0.53-0.23c0.14-0.09,0.28-0.21,0.41-0.36c0.13-0.15,0.23-0.35,0.29-0.58
					c0.18-1.15,0.35-2.29,0.52-3.44c0.17-0.93,0.19-1.68,0.03-2.24c-0.15-0.56-0.49-0.88-0.99-0.96c-0.32-0.03-0.61,0-0.86,0.11
					c-0.25,0.11-0.47,0.27-0.66,0.47c-0.19,0.2-0.35,0.43-0.47,0.69c-0.13,0.26-0.23,0.51-0.3,0.77c-0.17,1.34-0.34,2.68-0.52,4.02
					C65.25,29.61,65.28,29.84,65.35,30.03z"/>
			</g>
			<path class="st0" d="M91.72,38.45c-0.06,0.14-0.08,0.29-0.08,0.46c0,0.17,0.02,0.34,0.07,0.51c0.05,0.17,0.11,0.33,0.2,0.49
				c0.09,0.15,0.19,0.28,0.3,0.39c-0.02,0.04-0.04,0.09-0.05,0.13c-1.18-0.49-2.36-0.95-3.56-1.39c0.07-0.18,0.13-0.36,0.2-0.53
				c-0.79,0.11-1.54,0.04-2.26-0.21c-0.68-0.24-1.26-0.56-1.75-0.98c-0.49-0.42-0.88-0.89-1.16-1.43c-0.29-0.54-0.46-1.12-0.54-1.75
				c-0.07-0.63-0.01-1.27,0.18-1.92c0.2-0.67,0.5-1.25,0.91-1.71c0.4-0.46,0.88-0.82,1.44-1.07c0.56-0.24,1.18-0.37,1.86-0.38
				c0.68,0,1.39,0.12,2.12,0.38c0.39,0.14,0.77,0.3,1.13,0.51c0.36,0.2,0.69,0.45,0.98,0.72c0.36-0.98,0.73-1.96,1.09-2.93
				c0.1-0.28,0.08-0.61-0.06-0.99c-0.15-0.38-0.35-0.67-0.61-0.88c0.02-0.04,0.03-0.09,0.05-0.13c1.35,0.48,2.69,0.99,4.02,1.53
				C94.7,30.99,93.21,34.72,91.72,38.45z M86.7,38.02c0.34,0.12,0.67,0.16,0.96,0.13c0.3-0.04,0.57-0.14,0.82-0.3
				c0.25-0.16,0.46-0.37,0.65-0.62c0.18-0.25,0.33-0.53,0.45-0.83c0.54-1.45,1.08-2.89,1.61-4.34c0.02-0.06,0.03-0.12,0.01-0.16
				c-0.02-0.04-0.03-0.1-0.03-0.17c-0.04-0.41-0.17-0.79-0.39-1.15c-0.22-0.36-0.56-0.62-1.01-0.78c-0.53-0.19-1.02-0.18-1.45,0.03
				c-0.44,0.2-0.82,0.5-1.14,0.88c-0.32,0.38-0.59,0.82-0.81,1.29c-0.22,0.48-0.38,0.89-0.5,1.24c-0.11,0.35-0.22,0.76-0.33,1.24
				c-0.11,0.48-0.16,0.95-0.16,1.42c0,0.47,0.1,0.9,0.29,1.28C85.85,37.56,86.2,37.84,86.7,38.02z"/>
		</g>
		<g>
			<path class="st0" d="M39.06,47.01c-0.66,0.64-1.34,1.12-2.06,1.45c-0.72,0.33-1.43,0.53-2.14,0.59c-0.71,0.06-1.4,0-2.06-0.19
				c-0.66-0.18-1.27-0.47-1.83-0.86c-0.56-0.39-1.04-0.86-1.45-1.42c-0.41-0.56-0.71-1.19-0.9-1.88c-0.28-1-0.33-1.94-0.17-2.8
				c0.16-0.86,0.47-1.62,0.92-2.29c0.45-0.66,1.03-1.21,1.72-1.64c0.69-0.43,1.44-0.72,2.24-0.86c0.8-0.14,1.62-0.13,2.47,0.04
				c0.84,0.17,1.64,0.53,2.4,1.08l-1.27,1.65l-0.31-0.02c-0.22-0.33-0.47-0.68-0.77-1.02c-0.3-0.35-0.63-0.64-0.99-0.88
				c-0.36-0.24-0.75-0.4-1.17-0.48c-0.42-0.08-0.86-0.03-1.31,0.16c-0.6,0.24-1.03,0.62-1.31,1.14c-0.27,0.52-0.44,1.1-0.5,1.75
				c-0.08,0.8-0.01,1.59,0.21,2.38c0.22,0.78,0.55,1.5,0.97,2.16c0.43,0.66,0.93,1.23,1.5,1.71c0.57,0.48,1.18,0.82,1.81,1.01
				c0.63,0.19,1.27,0.21,1.91,0.06c0.64-0.15,1.24-0.52,1.8-1.12L39.06,47.01z"/>
			<path class="st0" d="M48.11,40.8c0,0.54-0.01,1.08-0.02,1.62c-0.02,0.54-0.03,1.09-0.02,1.62c0,0.24,0,0.48,0.01,0.71
				c0.01,0.23,0.04,0.45,0.1,0.65c0.06,0.2,0.15,0.39,0.28,0.56c0.13,0.17,0.31,0.3,0.57,0.41l0,0.13l-2.55,0l-0.54-0.54
				c-0.24,0.19-0.51,0.33-0.8,0.41c-0.29,0.08-0.59,0.13-0.89,0.13c-0.53,0-1.04-0.07-1.54-0.22c-0.5-0.15-0.95-0.37-1.33-0.66
				c-0.38-0.29-0.69-0.66-0.93-1.1c-0.23-0.44-0.35-0.95-0.35-1.53c0-0.55,0.12-1.04,0.35-1.48c0.23-0.44,0.54-0.81,0.91-1.12
				c0.38-0.31,0.81-0.55,1.29-0.72c0.48-0.17,0.98-0.25,1.5-0.25c0.28,0,0.55,0.02,0.83,0.07c0.28,0.05,0.55,0.13,0.8,0.25
				c0-0.12-0.01-0.25-0.04-0.39c-0.02-0.14-0.06-0.28-0.12-0.4c-0.05-0.13-0.13-0.23-0.23-0.3c-0.1-0.08-0.23-0.12-0.39-0.12
				c-0.2,0-0.42,0.05-0.64,0.15c-0.22,0.1-0.42,0.21-0.58,0.31l0.27-0.75c0.14-0.01,0.29-0.02,0.43-0.02c0.14,0,0.29,0,0.43,0
				c0.48,0,0.92,0.03,1.31,0.09c0.39,0.06,0.73,0.18,1.01,0.37c0.28,0.19,0.49,0.45,0.65,0.79C48.03,39.81,48.11,40.25,48.11,40.8z
				 M45.8,42.31l0-1.69c-0.13-0.27-0.31-0.5-0.55-0.67c-0.23-0.17-0.51-0.26-0.82-0.26c-0.37,0-0.69,0.12-0.95,0.35
				c-0.26,0.23-0.48,0.52-0.64,0.85c-0.17,0.34-0.29,0.69-0.37,1.08c-0.08,0.38-0.12,0.72-0.12,1.01c0,0.28,0.03,0.6,0.09,0.98
				c0.06,0.38,0.16,0.74,0.31,1.08c0.14,0.34,0.34,0.63,0.58,0.87c0.25,0.24,0.55,0.36,0.91,0.36c0.37,0,0.69-0.11,0.96-0.32
				c0.27-0.21,0.47-0.48,0.6-0.82L45.8,42.31z"/>
			<path class="st0" d="M53.41,45.44c0.05,0.14,0.13,0.27,0.22,0.39s0.19,0.24,0.31,0.33c0.12,0.1,0.24,0.17,0.36,0.21l0,0.13
				l-4.22,0.01l0-0.13c0.12-0.05,0.24-0.12,0.36-0.22c0.12-0.1,0.22-0.21,0.31-0.33c0.09-0.13,0.16-0.26,0.21-0.4
				c0.05-0.14,0.08-0.27,0.08-0.4l-0.01-5.33c0-0.26-0.1-0.53-0.31-0.8c-0.2-0.27-0.43-0.45-0.66-0.55l0-0.13l3.25,0l0,1.18
				c0.7-0.81,1.6-1.22,2.67-1.22c0.35,0,0.69,0.04,1.03,0.12c0.34,0.08,0.66,0.2,0.96,0.37l-0.93,1.56l-0.36-0.07
				c-0.05-0.16-0.11-0.33-0.18-0.51c-0.07-0.19-0.17-0.36-0.28-0.51c-0.11-0.16-0.25-0.29-0.4-0.39c-0.16-0.11-0.33-0.16-0.52-0.16
				c-0.28,0-0.53,0.09-0.77,0.28c-0.24,0.19-0.45,0.41-0.63,0.68c-0.18,0.27-0.32,0.55-0.43,0.85c-0.11,0.3-0.16,0.57-0.16,0.81
				l0.01,3.82C53.32,45.16,53.35,45.3,53.41,45.44z"/>
			<path class="st0" d="M65.29,44.28c0.16,0.18,0.31,0.36,0.46,0.54c0.15,0.18,0.31,0.35,0.48,0.52c-0.39,0.38-0.86,0.67-1.39,0.86
				c-0.53,0.19-1.07,0.29-1.62,0.29c-0.83,0-1.46-0.15-1.91-0.46c-0.45-0.3-0.78-0.7-1-1.19c-0.22-0.49-0.35-1.04-0.39-1.65
				c-0.04-0.61-0.06-1.22-0.07-1.83l0-0.36l0.01-2.33l-0.83,0l0-0.43l0.56,0l0.27,0c0.23-0.01,0.46-0.13,0.7-0.34
				c0.24-0.22,0.46-0.47,0.65-0.75c0.2-0.29,0.36-0.59,0.48-0.9c0.13-0.31,0.19-0.57,0.19-0.79l0.34,0l0,2.78l2.46,0l0,1.06
				c-0.04-0.01-0.16-0.05-0.36-0.12c-0.2-0.07-0.42-0.14-0.66-0.21c-0.23-0.08-0.54-0.18-0.92-0.29l-0.52,0
				c-0.01,0.57-0.02,1.15-0.02,1.72c0,0.57,0,1.15,0,1.72c0,0.5,0.01,1,0.04,1.5c0.02,0.5,0.08,0.98,0.18,1.44
				c0.02,0.14,0.06,0.29,0.1,0.43c0.04,0.14,0.1,0.27,0.18,0.39c0.08,0.11,0.17,0.21,0.29,0.29c0.11,0.08,0.25,0.12,0.42,0.12
				c0.23,0,0.44-0.07,0.63-0.22c0.19-0.14,0.36-0.32,0.52-0.52c0.16-0.2,0.29-0.42,0.41-0.65C65.11,44.66,65.21,44.46,65.29,44.28z"
				/>
			<path class="st0" d="M74.05,45.6c-0.61,0.51-1.31,0.82-2.09,0.92c-0.78,0.1-1.53-0.01-2.25-0.34c-0.52-0.24-0.97-0.56-1.34-0.96
				c-0.37-0.4-0.65-0.85-0.84-1.35c-0.19-0.5-0.28-1.02-0.27-1.56c0.01-0.54,0.13-1.07,0.37-1.6c0.24-0.53,0.56-0.99,0.97-1.35
				c0.4-0.37,0.85-0.65,1.34-0.83c0.49-0.18,1.01-0.27,1.56-0.26c0.55,0.01,1.09,0.14,1.62,0.38c0.77,0.35,1.38,0.87,1.82,1.56
				s0.64,1.46,0.62,2.32c-1.01,0-2.02,0-3.02,0c-1,0-2,0-3.02,0c0,0.26,0.02,0.58,0.06,0.95c0.04,0.37,0.11,0.74,0.22,1.11
				c0.1,0.37,0.24,0.7,0.42,1.01c0.18,0.3,0.41,0.52,0.69,0.65c0.22,0.1,0.42,0.12,0.61,0.07c0.19-0.05,0.36-0.14,0.52-0.28
				c0.16-0.13,0.3-0.29,0.42-0.47c0.12-0.18,0.22-0.36,0.3-0.53c0.04-0.09,0.08-0.18,0.11-0.27c0.04-0.1,0.07-0.19,0.1-0.28
				L74.05,45.6z M73.3,42.25c0.01-0.27,0-0.59-0.02-0.95c-0.02-0.36-0.08-0.71-0.17-1.07c-0.09-0.36-0.22-0.68-0.39-0.97
				c-0.17-0.29-0.4-0.5-0.68-0.63c-0.24-0.11-0.46-0.14-0.66-0.1c-0.2,0.04-0.38,0.12-0.54,0.25c-0.16,0.12-0.3,0.28-0.43,0.47
				c-0.12,0.19-0.23,0.38-0.32,0.57c-0.34,0.75-0.52,1.56-0.55,2.43L73.3,42.25z"/>
		</g>
	</g>
	<path class="st0" d="M68.74,58.83C68.74,58.83,68.73,58.83,68.74,58.83c-0.08-0.08-0.24-0.14-0.24-0.14
		c-0.08-0.03-1.35-0.59-3.02-0.6c0.69-0.3,1.43-0.72,2.2-1.32c0.07-0.05,0.37-0.25,0.33-0.33c-0.03-0.08-0.39-0.03-0.48-0.02
		c-0.64,0.08-2.84,0.45-5.11,1.8c-0.1,0.06-0.22,0.1-0.34,0.11c-0.22,0.02-0.64,0.07-1.21,0.12c-0.04,0-0.06-0.06-0.02-0.07
		c1.74-0.71,4.07-2.03,5.9-4.33c0.06-0.07,0.18-0.31,0.11-0.37c-0.06-0.06-0.29,0.07-0.36,0.12c-0.71,0.54-4.29,3.24-7.84,4.79
		c0,0,0,0,0,0c-0.07,0.02-0.13,0.03-0.19,0.05c-0.24,0.02-0.49,0.03-0.76,0.05c-0.18,0-0.36,0-0.59,0.04
		c-0.06,0-0.12,0.01-0.18,0.01c-0.45-0.05-0.78,0.04-1.19,0.03c-0.06,0-0.14-0.03-0.21-0.03c0.01-0.03,0.04-0.06,0.07-0.08
		c1.44-0.77,3.75-2.15,5.1-3.64c0.06-0.06,0.24-0.29,0.2-0.36c-0.05-0.07-0.32,0.04-0.4,0.07c-0.4,0.15-1.97,0.78-3.79,2.09
		c0.56-0.75,0.91-1.42,1.03-1.67c0.04-0.08,0.11-0.34,0.04-0.39c-0.07-0.06-0.25,0.11-0.32,0.16c-2.18,1.67-3.31,2.93-3.84,3.63
		c-0.16,0.21-0.41,0.34-0.68,0.35c-0.52,0.01-1.06,0.03-1.6,0.03c-0.07,0-0.2-0.09-0.14-0.12c1.31-0.57,2.83-1.35,3.2-1.56
		c0.07-0.04,0.24-0.18,0.22-0.26c-0.02-0.08-0.23-0.07-0.31-0.07c-2.77,0.09-4.19,1.28-4.74,1.89c-0.03,0.03-0.06,0.05-0.09,0.07
		c-0.07,0.03-0.23,0.05-0.34,0.06c-0.02,0-0.04,0-0.07,0c-0.12,0-0.23-0.03-0.36-0.05c-0.15-0.03-0.79,0.04-0.79,0.04
		c-0.15,0-0.2-0.01-0.36-0.02c-0.04,0-0.16-0.04-0.13-0.06c1.09-0.61,2.9-1.99,3.94-3.57c0.06-0.08,0.16-0.25,0.09-0.32
		c-0.07-0.07-0.3-0.03-0.38,0.03c-0.64,0.44-2.79,1.96-4.6,3.8c-0.06,0.06-0.15,0.1-0.23,0.09c-0.21-0.01-0.42-0.01-0.63-0.02
		c-0.02,0-0.03-0.03-0.01-0.04c1.3-0.86,2.51-2.22,2.9-2.68c0.06-0.07,0.17-0.33,0.11-0.4c-0.06-0.07-0.26,0.06-0.34,0.1
		c-1.94,0.94-3.11,2.01-3.63,2.7c-0.13,0.17-0.33,0.26-0.54,0.25c-0.64-0.04-1.1-0.09-1.75-0.14c-0.1-0.01-0.13-0.13-0.05-0.19
		c0.96-0.65,2.68-2.12,3.5-3.32c0.07-0.1,0.15-0.41,0.07-0.5c-0.08-0.09-0.29,0.07-0.39,0.13c-0.84,0.47-2.76,1.68-4.01,3.36
		c-0.2,0.27-0.52,0.41-0.85,0.38c-0.22-0.02-0.43-0.05-0.65-0.07l0,0c-0.01,0-0.02,0-0.03,0c-0.14-0.02-0.27-0.03-0.41-0.05
		c-0.08-0.01-0.16-0.02-0.24-0.03c-1.63-0.2-3.24-0.46-4.79-0.79c-0.01,0-0.02-0.01-0.04-0.01c-0.2-0.07-0.65-0.2-0.92,0.01
		c-0.04,0.03-0.07,0.07-0.08,0.11c-0.05,0.14,0.04,0.29,0.19,0.32l0.11,0.03c0.5,0.12,0.96,0.37,1.48,0.4
		c0.23,0.01,0.46,0.05,0.69,0.1c0.41,0.09,1.01,0.22,1.36,0.28c0.52,0.1,1.95,0.2,2.42,0.23c0.73,0.09,1.47,0.16,2.22,0.22
		c0.4,0.03,0.75,0.27,0.92,0.63c0.59,1.2,1.77,3.43,3.04,4.66l0,0c0.02,0.02,0.03,0.03,0.05,0.05c0.01,0.01,0.01,0.01,0.02,0.02
		c0.24,0.22,0.51,0.45,0.69,0.6c0.07,0.06,0.17-0.01,0.15-0.1l-0.14-0.6c0-0.01,0-0.01-0.01-0.02l0-0.01l0,0
		c-0.16-0.68-0.83-2.17-3.38-5c-0.04-0.05,0.18-0.14,0.25-0.13c0.21,0.01,0.23,0.04,0.44,0.05c0.26,0.02,0.5,0.15,0.64,0.36
		c0.73,1.1,2.64,3.5,6.12,5.08l0,0c0,0,0.39,0.22,0.81,0.26c0,0,0.01,0,0.01,0c0.03,0,0.06,0,0.07-0.01
		c0.06-0.1-0.26-0.42-0.34-0.49c-0.88-0.72-3.19-2.61-6.18-5.11c-0.01-0.01,0-0.03,0.01-0.03c0.02,0,0.04,0,0.06,0
		c0.07,0,0.14,0.03,0.2,0.07c0.64,0.52,2.31,1.75,4.16,2.22c0.02,0,0.04,0.01,0.05,0.01c0.06,0,0.31,0.08,0.34,0.02
		c0.04-0.07-0.16-0.27-0.21-0.33c-0.28-0.29-1.21-1.15-2.92-1.89c-0.03-0.01-0.02-0.05,0.01-0.05c0.44,0.01,0.73,0.03,1.15,0.03
		c0.1,0,0.2,0.05,0.26,0.13c0.96,1.23,2.93,2.01,3.33,2.16c0.02,0.01,0.05,0.01,0.07,0.01c0.05,0,0.26,0.08,0.3,0.04
		c0.05-0.07-0.12-0.27-0.17-0.33c-0.78-0.93-1.53-1.51-2.14-1.88c-0.06-0.03-0.03-0.12,0.03-0.12c0.44,0,0.76,0,1.19,0
		c0.35,0,0.67,0.19,0.84,0.49c0.7,1.3,2.06,3.83,2.23,4.16c0.25,0.48,1.49,1.8,2.29,2.25c0.06,0.04,0.34,0.21,0.39,0.15l0,0
		c0.05-0.05-0.14-0.32-0.18-0.38l0-0.01c-0.17-0.24-1.64-2.38-1.96-3c-0.05-0.1-0.1-0.22-0.16-0.35c-0.06-0.14-0.13-0.31-0.23-0.49
		c0.96,0.91,2.38,2,4.15,2.69c0.04,0.02,0.09,0.03,0.14,0.03l0.14,0.02c0.07,0.01,0.12-0.07,0.08-0.13l-0.07-0.11
		c-0.02-0.03-0.05-0.07-0.07-0.1c-0.31-0.36-1.4-1.52-3.25-2.78c0.62,0.17,1.27,0.3,1.83,0.31c0,0,0,0,0,0
		c0.07,0,0.37,0.01,0.39-0.07c0.02-0.08-0.25-0.23-0.32-0.26c-0.32-0.15-1.88-0.85-3.48-1.09c0,0,0,0,0,0
		c-0.52-0.12-0.82-0.4-0.93-0.53c-0.02-0.02-0.03-0.04-0.05-0.06c0,0,0,0,0,0l0,0c-0.17-0.2-0.36-0.41-0.57-0.64
		c-0.06-0.07-0.04-0.13,0.05-0.13c0.14,0,0.28-0.01,0.43-0.01l0,0c0,0,0.32,0.03,0.43,0.03c0.11-0.01,0.59-0.05,0.81-0.06
		c0,0,0,0,0,0c0.06,0,0.13,0,0.19-0.01c0.17,0,0.36,0,0.58,0.02c0.17,0.04,0.33,0.1,0.47,0.19c1.03,0.64,3.14,1.87,5.12,2.66
		c0.09,0.03,0.38,0.1,0.42,0.02l0,0c0.05-0.08-0.17-0.29-0.25-0.34c-0.3-0.22-1.05-0.75-2.09-1.34c0.71,0.13,1.52,0.21,2.41,0.19
		c0,0,0,0,0,0c0.08,0,0.34-0.02,0.36-0.1c0.02-0.08-0.21-0.2-0.28-0.24c-0.26-0.15-1.41-0.73-3.4-1.15
		c-0.04-0.01-0.04-0.07,0.01-0.07c1.02-0.06,1.87-0.13,2.61-0.19c0.17-0.01,0.34-0.04,0.48,0.06c1.22,0.88,4.57,3.17,7.29,3.05
		c0.1,0,0.21-0.01,0.31-0.02c0.1-0.01,0.44-0.07,0.46-0.17c0.02-0.1-0.28-0.22-0.37-0.26c-0.85-0.43-3.59-1.77-6.65-2.73
		c-0.03-0.01-0.02-0.04,0.01-0.05c0.09-0.01,0.18-0.02,0.26-0.03c0.2-0.02,0.4,0.01,0.58,0.09c1.25,0.52,4.01,1.55,5.92,1.52
		c0,0,0,0,0.01,0c0.1,0,0.38-0.03,0.4-0.13c0.02-0.09-0.23-0.22-0.31-0.26c-0.32-0.2-1.27-0.7-3.17-1.14
		c0.73,0.04,1.55,0.07,2.28,0.04c0.29-0.01,0.73-0.07,0.97-0.1v0c0,0,0.34-0.03,0.43-0.13c0.01,0,0.01-0.01,0.01-0.02c0,0,0,0,0,0
		C68.75,58.85,68.75,58.84,68.74,58.83z M60.02,55.29c-0.65,0.61-2.12,1.75-2.9,2.27C57.68,56.42,58.94,55.94,60.02,55.29z
		 M41.73,58.45c-0.03,0.01-0.05-0.02-0.03-0.04c0.22-0.22,0.42-0.42,0.62-0.6c0.01-0.01,0.59-0.5,0.73-0.7
		c0.01-0.01,0.02-0.03,0.03-0.04c0.29-0.28,0.55-0.52,0.78-0.72c0,0,0,0,0,0c0.21-0.12,0.7-0.47,0.88-0.71
		c0.17-0.12,0.33-0.23,0.51-0.34c0.02-0.01,0.04,0.01,0.03,0.03c-0.17,0.22-0.35,0.43-0.52,0.62c-0.13,0.13-0.39,0.28-0.55,0.47
		c-0.08,0.09-0.2,0.26-0.3,0.41c-0.33,0.31-0.65,0.58-0.94,0.81c-0.33,0.16-1.04,0.71-1.05,0.72
		C41.84,58.38,41.78,58.42,41.73,58.45z M45.23,62.49c0.01,0.02-0.01,0.04-0.03,0.03l-0.86-0.86c-0.02-0.02-0.04,0-0.03,0.02
		c0.18,0.3,0.65,1.06,1.07,1.74c0.01,0.01-0.01,0.02-0.02,0.01c-1.14-1.39-1.78-2.42-2.19-3.51C44.1,60.96,44.76,61.81,45.23,62.49z
		 M47.03,61.75c0.19,0.26,0.35,0.4,0.74,0.61c0.05,0.02,0.12,0.05,0.16,0.09c0.34,0.38,0.77,0.61,1.17,0.9
		c0.11,0.08,0.54,0.49,0.75,0.53c0.17,0.03,0.24,0.08,0.34,0.19c0.03,0.02,0,0.07-0.03,0.06c-0.95-0.16-2.04-0.99-2.7-1.59
		c-0.83-0.75-2.04-1.73-2.42-2.67C45.5,60.46,46.59,61.14,47.03,61.75z M45.44,58.46c-0.19,0.21-0.29,0.27-0.43,0.33
		c-0.02,0.01-0.04-0.02-0.02-0.03c0.43-0.54,1.18-1.18,2.64-2.18c0.03-0.02,0.06,0.02,0.04,0.04c-0.14,0.15-0.3,0.32-0.47,0.49
		c-0.24,0.14-0.48,0.29-0.51,0.37c-0.05,0.12-0.2,0.28-0.28,0.33c-0.28,0.2-0.5,0.49-0.86,0.57C45.5,58.39,45.46,58.44,45.44,58.46z
		 M46.78,59.96c0.94,0.43,1.62,0.88,2.06,1.23c0.01,0.01,0,0.03-0.01,0.02c-0.77-0.47-1.51-0.8-2.11-1.11
		C46.63,60.05,46.69,59.92,46.78,59.96z M47.13,58.6c0.98-1.02,1.79-1.65,2.47-2.13c0.01-0.01,0.02,0.01,0.01,0.01l-0.96,0.95
		c-0.01,0.01,0,0.04,0.02,0.03l1.06-0.69c0.01-0.01,0.02,0.01,0.01,0.01c-0.93,0.91-1.89,1.51-2.57,1.88
		C47.13,58.66,47.1,58.62,47.13,58.6z M50.18,60.55c0,0-0.01,0-0.03,0c-0.06,0-0.12-0.02-0.16-0.05c-0.26-0.17-0.43-0.3-0.51-0.36
		c-0.01-0.01-0.02,0-0.02,0.02l0.05,0.13c-0.3-0.2-0.62-0.42-0.97-0.65c0.02-0.03,0.01-0.02,0.03-0.05
		C48.95,59.73,49.53,60.02,50.18,60.55z M50.66,58.61c-0.19,0.11-0.37,0.22-0.53,0.32c0,0-0.04,0.02-0.14,0.02
		c-0.03,0-0.04-0.03-0.02-0.05c1.27-0.98,1.64-1.25,3.29-1.53c0.03,0,0.04,0.03,0.02,0.04c-0.06,0.03-0.12,0.07-0.2,0.12
		c-0.05,0.03-0.13,0.06-0.18,0.06c-0.39,0.01-0.69,0.25-1.04,0.38c-0.1,0.04-0.3,0.17-0.4,0.29c-0.05,0.06-0.28,0.14-0.53,0.22
		C50.84,58.52,50.75,58.56,50.66,58.61z M55.95,61.91c-0.66-0.13-1.35-0.35-1.9-0.55c-0.01-0.01-0.03-0.02-0.04-0.03
		C54.73,61.49,55.42,61.72,55.95,61.91z M53.52,61.5c0.26,0.1,0.51,0.25,0.72,0.42c1.66,1.37,2.75,1.99,3.37,2.57
		c0.02,0.02,0,0.05-0.03,0.04C55.71,63.65,54.3,62.35,53.52,61.5C53.52,61.5,53.52,61.5,53.52,61.5z M52.7,61.04
		c0,0.01,0,0.01,0.01,0.02c0.02,0.03,0.06,0.07,0.09,0.11c0.7,0.9,0.94,1.46,1.12,1.88c0.04,0.1,0.09,0.2,0.13,0.3
		c-0.34-0.43-0.65-0.81-0.76-1.08c-0.01-0.02-0.04-0.01-0.04,0.01c0.01,0.16,0.06,0.41,0.17,0.73c-0.43-0.73-0.83-1.5-1.38-2.73
		C52.3,60.55,52.52,60.8,52.7,61.04z M53.82,58.9c-0.03-0.03,0,0-0.02-0.03c0.42-0.56,1.51-1.45,3.09-3.01c0,0.02,0,0.04,0.01,0.06
		c0.05,0.15-0.17,0.27-0.25,0.35c-0.28,0.3-0.34,0.7-0.74,0.88c-0.04,0.02-0.09,0.07-0.09,0.12c-0.01,0.1-0.08,0.23-0.19,0.36
		C55.11,58.14,54.51,58.61,53.82,58.9z M58.82,61.51c-0.81-0.39-1.6-0.81-2.27-1.19c0.11,0.04,0.23,0.08,0.36,0.12
		C57.65,60.81,58.3,61.18,58.82,61.51z M59.26,60.35L59.26,60.35c0.04,0.01,0.08,0.02,0.12,0.03c0.13,0.04,0.32,0.11,0.37,0.23
		c0,0,0,0,0,0c-0.33,0.02-0.56,0.04-0.88-0.05c-0.15-0.04-0.3-0.06-0.46-0.05c-0.49,0.02-0.94-0.21-1.4-0.37
		c-0.03,0-0.05-0.01-0.07-0.01c-0.02-0.01-0.05-0.02-0.07-0.03c0,0,0,0-0.01,0c-0.25-0.08-0.42-0.13-0.77-0.27
		c-0.1-0.04-0.18,0-0.28-0.07c-0.13-0.09-0.38-0.09-0.29-0.36c0.07-0.21,0.24-0.02,0.34,0.02c0.4,0.16,0.76,0.2,1.18,0.45
		C57.87,60.01,58.27,60.11,59.26,60.35z M59.79,58.43c0.7-0.28,1.84-1.08,2.55-1.31c0.3-0.1,0.48-0.21,0.8-0.53
		c0.04-0.04,0.09-0.1,0.13-0.12c0.47-0.21,0.81-0.56,1.2-0.85c0.11-0.08,0.62-0.37,0.73-0.56c0.08-0.15,0.15-0.2,0.28-0.27
		c0.03-0.02,0.07,0.02,0.05,0.05c-0.43,0.86-1.55,1.65-2.32,2.11C62.26,57.51,60.81,58.34,59.79,58.43z M67.24,61.8
		c0.02,0.01,0.03,0.03,0.02,0.05c-0.56-0.27-3.01-1.2-3.74-1.47c-0.04-0.01-0.07,0.04-0.04,0.06l0.27,0.23
		c0.02,0.02,0,0.04-0.02,0.03c-0.22-0.1-0.45-0.22-0.68-0.34c-0.9-0.48-1.76-0.76-2.28-1.12C63.46,60.04,65.96,61.18,67.24,61.8z
		 M65.1,57.29l-0.89,0.67c-0.01,0.01,0,0.03,0.01,0.02c0.31-0.13,1.37-0.55,1.8-0.51c-0.51,0.27-0.99,0.47-1.43,0.62
		c-0.13,0.04-0.26,0.08-0.39,0.1c-0.16,0.03-0.19,0.05-0.9,0.22c-0.29,0.05-0.54,0.07-0.75,0.08C63.56,57.89,64.39,57.53,65.1,57.29
		z M67.58,60.23c0.03,0.01,0.01,0.05-0.01,0.05c-1.57-0.14-2.86-0.9-4.29-1.16C65.84,59.48,66.83,59.88,67.58,60.23z M67.5,58.74
		c-1.13-0.12-2.24-0.21-3.57-0.1c-0.01,0-0.02-0.02,0-0.02c0.12-0.03,0.24-0.06,0.37-0.1c0.1-0.03,0.19-0.05,0.29-0.06
		c1.17-0.14,2.22,0.04,2.92,0.23C67.54,58.7,67.53,58.74,67.5,58.74z"/>
</g>
</svg>
