<svg id="Layer_2" data-name="Layer 2" xmlns="http://www.w3.org/2000/svg" viewBox="0 0 334.17 34.39"><g id="Group_222" data-name="Group 222"><path id="Path_249" data-name="Path 249" d="M14.19,34c0-2.21,2.35-3.77,5.35-3.77a5.39,5.39,0,0,1,5.92,4.46h7.41c-.65-6.51-6.1-10.22-13.28-10.22S6.79,28.62,6.79,34.63c0,5,3.28,8.17,10.28,9.62l3.28.71c3.62.75,5.63,1.83,5.63,4,0,2.49-2.48,3.85-5.77,3.85a6,6,0,0,1-6.76-5.16H6c.65,7.46,6.57,10.93,14.18,10.93,7,0,13.33-3.56,13.33-10.32,0-5.73-4.27-8.69-10.89-10l-3.66-.81c-3.28-.65-4.75-1.49-4.75-3.46M53,58h7.14V42.84c0-6.52-3.57-9.72-8.88-9.72a8.79,8.79,0,0,0-7.13,3.19V24.21H37V58h7.13v-13c0-4,2.11-5.82,4.6-5.82C51.42,39.23,53,41,53,44.11Zm26.52-9.62A4.83,4.83,0,0,1,75,53.46a5,5,0,0,1-.67,0c-2.26,0-4-1-4-2.87,0-2.34,2.77-3,9.2-3.84ZM86.67,58c-.14-3-.19-4.36-.19-5.16l0-10.33c0-6.85-4.08-9.43-10.65-9.43-6.15,0-10.79,3.23-11.59,8.54h6.66a4.15,4.15,0,0,1,4.6-3.47c2.54,0,4,1,4,3.66v.33L74,43c-6.43,1-10.52,2.82-10.52,7.89s4.41,7.6,9,7.6a9.29,9.29,0,0,0,7.6-3.28L80.14,58ZM118,58l7.69-24.31h-6.8l-4.46,15.82L110,33.69H103.9L99.58,49.6,95.07,33.69H88L95.73,58h6.8l4.32-15.35L111.17,58Zm18.35-16.57c0-6.43,3.8-10.47,8.59-10.47a7.4,7.4,0,0,1,7.64,5.4h7.65c-1-7.18-7.26-11.92-15.24-11.92a16.33,16.33,0,0,0-16.54,16.11c0,.3,0,.59,0,.88a16.25,16.25,0,0,0,15.35,17.11c.38,0,.75,0,1.13,0,8,0,14.18-4.69,15.35-11.92h-7.65A7.53,7.53,0,0,1,145,52c-4.79,0-8.64-4.18-8.64-10.61M182.1,45.7c0,4.32-2.35,7-5.87,7s-5.87-2.77-5.87-7a5.93,5.93,0,1,1,11.73-1.76,5.77,5.77,0,0,1,0,1.76m7.33,0a13.2,13.2,0,0,0-26.38,0,13.2,13.2,0,0,0,26.38,0M208.75,58h7.14V42.84c0-6.52-3.57-9.72-8.88-9.72a8.7,8.7,0,0,0-7.37,3.52v-3h-6.89V58h7.15v-13c0-4,2.11-5.82,4.6-5.82,2.67,0,4.27,1.78,4.27,4.88Zm20.75,0c2.3,0,3.66,0,5.31-.1v-5.3h-2.72c-1.93,0-2.68-.47-2.68-2.91V38.9h5.4V33.69h-5.4V27.63h-7v6.06h-3.95V38.9h3.95V51.37c0,5.35,2.63,6.67,7.08,6.67m22.11-18a17.56,17.56,0,0,1,2.4.14V33.64a9.28,9.28,0,0,0-1.74-.14,7.33,7.33,0,0,0-5.07,1.74,7.63,7.63,0,0,0-1.69,2.06V33.69h-6.9V58h7.14V45.66A5.17,5.17,0,0,1,250.41,40a6,6,0,0,1,1.2,0m19.76,8.31a4.83,4.83,0,0,1-4.58,5.08,3.74,3.74,0,0,1-.67,0c-2.26,0-3.95-1-3.95-2.86,0-2.35,2.77-3.05,9.2-3.85ZM278.51,58c-.14-3-.19-4.37-.19-5.17l.05-10.33c0-6.85-4.08-9.43-10.66-9.43-6.15,0-10.79,3.23-11.6,8.54h6.66a4.15,4.15,0,0,1,4.6-3.47c2.54,0,4,1,4,3.66v.33l-5.57.89c-6.43,1-10.51,2.82-10.51,7.89s4.41,7.6,9,7.6a9.33,9.33,0,0,0,7.61-3.28L272,58Zm10.76-12.3c0-4,2.3-6.81,5.58-6.81a5,5,0,0,1,5,3.76h7.05a11.35,11.35,0,0,0-12.08-9.58,12.46,12.46,0,0,0-12.9,12c0,.21,0,.42,0,.63a12.4,12.4,0,0,0,11.92,12.86h.94A11.51,11.51,0,0,0,306.89,49h-7.08a4.93,4.93,0,0,1-5,3.8c-3.23,0-5.58-2.86-5.58-7m30.37,12.34c2.3,0,3.66,0,5.3-.09V52.65H322.2c-1.93,0-2.68-.47-2.68-2.91V38.9h5.4V33.69h-5.4V27.63h-7v6.06h-3.94V38.9h3.94V51.37c0,5.35,2.63,6.67,7.09,6.67m15.85-22.21h-1.35V34.34h1.35c.58,0,.88.3.88.76s-.29.74-.88.74m.84.69h0a1.44,1.44,0,0,0,1-1.45c0-.85-.54-1.55-1.77-1.55h-2.42V38.6h1v-2h1c.13,0,.15,0,.2.12l1,1.82h1.13l-1-1.74-.19-.32m3.05-.41a4.21,4.21,0,0,1-8.41.36v-.36a4.21,4.21,0,0,1,8.41-.37,2.28,2.28,0,0,1,0,.37m.78,0a5,5,0,0,0-10-.33v.33a5,5,0,0,0,10,.32v-.32" transform="translate(-5.98 -24.21)"/></g></svg>