<?xml version="1.0" encoding="utf-8"?>
<!-- Generator: Adobe Illustrator 25.1.0, SVG Export Plug-In . SVG Version: 6.00 Build 0)  -->
<svg version="1.1" id="Layer_2_1_" xmlns="http://www.w3.org/2000/svg" xmlns:xlink="http://www.w3.org/1999/xlink" x="0px" y="0px"
	 viewBox="0 0 153.6 13" style="enable-background:new 0 0 153.6 13;" xml:space="preserve">
<style type="text/css">
	.st0{fill:#081F2D;}
	.st1{fill:#CF3339;}
</style>
<g>
	<path class="st0" d="M44.9,2.4v3.1h3.7V2.4h3.1v8.4h-3.1V7.6h-3.7v3.2h-3V2.4H44.9z M36.2,9.2c0.7,0,1.3-0.2,1.7-0.6
		c0.4-0.3,0.5-0.6,0.6-0.8l2.9,0.3c-0.1,0.3-0.2,0.6-0.5,1c-1,1.5-2.9,2-4.8,2c-0.8,0-1.6-0.1-2.4-0.3C32,10.3,30.5,9,30.5,6.6
		C30.5,5,31.4,2,36.2,2c4.1,0,4.8,1.9,5,2.7l-2.8,0.5c-0.1-0.2-0.3-0.5-0.7-0.8c-0.5-0.3-1-0.4-1.5-0.4c-1.3,0-2.6,0.9-2.6,2.6
		C33.7,7.9,34.4,9.2,36.2,9.2 M25.1,7.6h2l-1-2.9L25.1,7.6z M27.7,2.4l3.7,8.4h-3.3l-0.5-1.4h-3.2L24,10.9h-3.3l3.6-8.4H27.7z
		 M20.5,4.3h-5.9v1.4h5.4v1.9h-5.4v1.3h6v1.9h-9V2.4h8.9V4.3z M10.8,4.3h-3v6.6H4.8V4.3h-3V2.4h9V4.3z"/>
	<path class="st1" d="M78.1,5.9c0.5,0,1.2,0,1.2-0.8c0-0.2-0.1-0.4-0.2-0.5c-0.2-0.2-0.5-0.3-0.8-0.3h-2.5v1.5H78.1z M79,2.4
		c0.8,0,1.7,0,2.4,0.5c0.6,0.5,1,1.3,1,2.1c0,0.6-0.2,1.2-0.5,1.6c-0.5,0.6-1,0.7-1.4,0.8l2.1,3.4h-3.3l-1.7-3.1h-1.6v3.1h-3V2.4H79
		z M66.6,9.3c0.4,0,0.8,0,1.2-0.2c0.9-0.5,1.3-1.6,1.3-2.4c0-0.9-0.4-2.6-2.5-2.6c-1.9,0-2.5,1.5-2.5,2.6
		C64.1,7.9,64.8,9.3,66.6,9.3 M72.2,6.6c0,0.8-0.2,1.6-0.6,2.3c-0.3,0.5-0.6,0.8-1,1.1c-1.2,0.9-2.5,1.1-4.1,1.1
		c-2.9,0-4.1-1-4.8-1.9c-0.6-0.8-0.8-1.6-0.8-2.6c0-1,0.3-1.9,0.8-2.7c1.2-1.7,3.2-1.9,4.7-2c1,0,2.2,0.1,3.1,0.5
		C71.5,3.4,72.2,5.2,72.2,6.6 M60.9,2.4v1.9h-5.3v1.6h4.8v1.9h-4.8v3h-3V2.4H60.9z"/>
	<path class="st0" d="M145.7,7.6h2l-1-2.8L145.7,7.6z M148.4,2.4l3.7,8.4h-3.3l-0.5-1.4h-3.2l-0.5,1.4h-3.3l3.6-8.4H148.4z
		 M136.5,9.2c0.7,0,1.3-0.2,1.7-0.6c0.4-0.3,0.5-0.6,0.6-0.8l2.9,0.3c-0.1,0.3-0.2,0.6-0.5,1c-1,1.5-2.9,2-4.8,2
		c-0.8,0-1.6-0.1-2.4-0.3c-1.8-0.5-3.2-1.9-3.2-4.2c0-1.6,0.9-4.6,5.7-4.6c4.1,0,4.8,1.9,5,2.7l-2.8,0.5c-0.1-0.2-0.2-0.5-0.7-0.8
		c-0.5-0.3-1-0.4-1.4-0.4c-1.4,0-2.6,0.9-2.6,2.6C134,7.9,134.8,9.2,136.5,9.2 M130.2,10.9h-3V2.4h3V10.9z M121.9,5.9
		c0.5,0,1.2,0,1.2-0.8c0-0.2-0.1-0.4-0.2-0.5c-0.2-0.2-0.5-0.2-0.8-0.2h-2.5v1.5H121.9z M122.8,2.4c0.7,0,1.6,0,2.3,0.5
		c0.6,0.5,1,1.3,1,2.1c0,0.6-0.2,1.2-0.5,1.6c-0.5,0.6-1,0.7-1.4,0.8l2.1,3.4H123l-1.7-3.1h-1.6v3.1h-3V2.4H122.8z M115.6,4.3h-5.9
		v1.4h5.4v1.9h-5.4v1.3h6v1.9h-9V2.4h8.9V4.3z M97.4,2.4l2.1,5.5l2.1-5.5h4v8.4h-3V5.4l-2,5.4h-2.3l-2-5.4v5.4h-3V2.4H97.4z
		 M86.8,7.6h2l-1-2.8L86.8,7.6z M89.5,2.4l3.7,8.4h-3.3l-0.5-1.4h-3.2l-0.5,1.4h-3.3l3.6-8.4H89.5z"/>
</g>
</svg>
