<?xml version="1.0" encoding="utf-8"?>
<!-- Generator: Adobe Illustrator 25.1.0, SVG Export Plug-In . SVG Version: 6.00 Build 0)  -->
<svg version="1.1" id="Layer_2_1_" xmlns="http://www.w3.org/2000/svg" xmlns:xlink="http://www.w3.org/1999/xlink" x="0px" y="0px"
	 viewBox="0 0 187.1 187.1" style="enable-background:new 0 0 187.1 187.1;" xml:space="preserve">
<style type="text/css">
	.st0{fill:#F96302;stroke:#FFFFFF;}
	.st1{fill:#FFFFFF;}
</style>
<polygon class="st0" points="0,0 187.1,0 187.1,187.1 0,187.1 "/>
<path class="st1" d="M172.3,177.9c0-3,2.4-5.2,5.3-5.2s5.3,2.2,5.3,5.2c0,3.1-2.4,5.3-5.3,5.3C174.7,183.2,172.3,181,172.3,177.9
	L172.3,177.9z M177.6,182.3c2.4,0,4.3-1.9,4.3-4.4s-1.9-4.4-4.3-4.4s-4.3,1.9-4.3,4.4C173.3,180.4,175.2,182.3,177.6,182.3
	L177.6,182.3z M176.5,181h-0.9v-6.1h2.3c1.4,0,2.1,0.5,2.1,1.7c0,1.1-0.7,1.6-1.6,1.7l1.7,2.7h-1l-1.6-2.6h-1V181L176.5,181z
	 M177.6,177.6c0.8,0,1.5-0.1,1.5-1c0-0.8-0.7-0.9-1.3-0.9h-1.3v1.9H177.6L177.6,177.6z"/>
<path class="st1" d="M56.3,94.1c-1.7,3.5-0.2,5.4,1.2,6.8l28.6,28.6c1.4,1.4,3.3,2.8,6.8,1.2l3.2,3.2c-12.7,10.6-27.6,6.6-38.6-4.3
	c-11-11-15-25.9-4.3-38.6L56.3,94.1L56.3,94.1z M95.4,128.2c1.7-3.5,0.2-5.4-1.2-6.8L65.6,92.8c-1.4-1.4-3.3-2.8-6.8-1.2l-3.2-3.2
	c12.7-10.6,27.6-6.7,38.6,4.3s15,25.9,4.3,38.6L95.4,128.2L95.4,128.2z"/>
<path class="st1" d="M156.3,68.6c-0.8-0.8-1.8-0.8-2.7-0.3c-2.5,1.3-2.8,0.9-4.9-1.1l-28.9-28.9c-2-2-2.4-2.3-1.1-4.9
	c0.5-0.9,0.5-1.9-0.3-2.7c-1.6-1.6-3.5,0.1-3.7,0.3l-14.6,14.6l11.9,22l-0.1,0.1L89.1,56.6l-14,14c-0.7,0.7-2.3,2.3-0.6,4
	c1.3,1.3,2.9,0,3.6-0.7c1-0.9,1.9-0.4,3.2-0.1c1.2,0.3,2.3,0.8,3.4,1.4l45.7,22.7l1.6-1.6L109.6,55l25.7,25.7c2,2,2.4,2.3,1.1,4.9
	c-0.5,0.9-0.5,1.9,0.3,2.7c1.6,1.6,3.5-0.1,3.7-0.3L156,72.4C156.2,72.2,157.9,70.2,156.3,68.6L156.3,68.6z"/>
<path class="st1" d="M113.1,97.8l-9.5-9.5l-12.2-6l-0.1,0.1l18.6,18.6c6,7.8,0.3,9.2,2.7,11.5c1.7,1.7,3.9-0.7,4.5-1.3l6.3-6.3
	c0.6-0.6,3-2.7,1.3-4.5C122.3,98.1,120.9,103.8,113.1,97.8L113.1,97.8z"/>
<path class="st1" d="M83.1,155.6c5.2-5.3,13.3-6.1,21.7,1.6c7.6,7,6.7,16.5,1.6,21.7l-1.8-1.8c1.6-2.1,0-4-1.2-5.2l-13.2-13.2
	c-1.2-1.2-3-2.9-5.2-1.2L83.1,155.6L83.1,155.6z"/>
<path class="st1" d="M94.7,144l8.2-8.2l23.2,23.2l-8.2,8.2c-0.1,0.1-1.2,1.1-2.1,0.2c-0.4-0.4-0.4-1-0.2-1.5
	c0.7-1.4,0.5-1.6-0.6-2.7l-16.2-16.3c-1.1-1.1-1.3-1.4-2.7-0.6c-0.5,0.3-1.1,0.3-1.5-0.2C93.6,145.3,94.6,144.2,94.7,144L94.7,144z
	 M104.3,134.4l6.9-6.9l6.3,6.3c0.2,0.2,0.7,0.8-0.2,1.7c-0.5,0.5-1,0.4-1.6,0.1c-3.3-1.7-6.4-1.6-9.6,0.7L104.3,134.4L104.3,134.4z
	 M125.7,155.9c2.2-2.8,2.4-6.5,0.8-9.8c-0.2-0.7-0.6-1.4,0-1.9c1-1,1.8,0,2,0.2l6.2,6.2l-7.1,7.1L125.7,155.9L125.7,155.9z
	 M114.7,144.8c1-1.6,0.3-3.4-0.6-4.9c-0.4-0.7-0.7-1.4,0-2c1-1,1.9,0.3,2.2,0.6l6.7,6.7c0.2,0.2,1.5,1.2,0.6,2.2
	c-0.6,0.7-1.3,0.3-2,0c-1.5-0.9-3.3-1.5-4.9-0.6L114.7,144.8L114.7,144.8z"/>
<path class="st1" d="M123.2,115.5c3-3,5-4.4,7.3-5c3.7-0.9,6.6,0.2,9.2,2.8c2.6,2.6,3.8,5.6,2.8,9.2c-0.6,2.3-2.1,4.4-5,7.3
	l-1.8-1.8c1.5-2.2,0.3-3.5-1.2-5.1l-4.7-4.7c-1.4-1.4-3-2.4-4.9-1L123.2,115.5L123.2,115.5z M117.7,128c-1.2-1.2-1.3-1.4-2.7-0.6
	c-0.5,0.3-1.1,0.3-1.5-0.2c-0.9-0.9,0.1-2,0.2-2.1l8.2-8.2l19.8,19.8c1.1,1.1,1.3,1.4,2.7,0.6c0.5-0.3,1.1-0.3,1.5,0.2
	c0.9,0.9-0.1,2-0.2,2.1l-8.8,8.8c-0.1,0.1-1,0.8-1.9-0.1c-0.4-0.4-0.5-0.9-0.2-1.5c0.7-1.4,0.4-1.4-0.8-2.6L117.7,128L117.7,128z"/>
<path class="st1" d="M142.9,98.5c-0.9,2-0.1,3,0.6,3.8l16.1,16.1c0.8,0.8,1.8,1.6,3.8,0.7l1.8,1.8c-7.2,6-15.6,3.8-21.7-2.4
	c-6.2-6.2-8.4-14.6-2.4-21.7L142.9,98.5L142.9,98.5z M164.9,117.7c0.9-2,0.1-3-0.7-3.8l-16.1-16.1c-0.8-0.8-1.8-1.6-3.8-0.7
	l-1.8-1.8c7.2-6,15.6-3.8,21.7,2.4c6.2,6.2,8.4,14.6,2.4,21.7L164.9,117.7L164.9,117.7z"/>
<path class="st1" d="M22.4,70.8l7.2-7.2l18.6,18.6c1.1,1.1,1.2,1.3,2.6,0.6c0.5-0.3,1-0.3,1.4,0.1c0.8,0.8-0.1,1.9-0.2,2l-8.3,8.3
	c-0.1,0.1-1.1,1-2,0.2c-0.4-0.4-0.4-0.9-0.1-1.4c0.7-1.3,0.5-1.5-0.6-2.6L22.4,70.8L22.4,70.8z M41.9,64.9c0.1,0.1,0.8,0.9-0.1,1.8
	c-0.8,0.8-1.7,0.2-2.5-0.4c-1.8-1.3-4.1-2.8-6.7-2.4l-1.7-1.7l4.2-4.2L41.9,64.9L41.9,64.9z M16.9,76.3l4.2-4.2l1.7,1.7
	c-0.4,2.6,1.1,4.9,2.4,6.7c0.6,0.7,1.2,1.6,0.4,2.5c-0.9,0.9-1.7,0.2-1.8,0.1L16.9,76.3L16.9,76.3z"/>
<path class="st1" d="M63.3,67c1.1,1.1,1.2,1.3,2.6,0.6c0.5-0.3,1-0.3,1.4,0.1c0.8,0.8-0.1,1.9-0.2,2L58.8,78c-0.1,0.1-1.1,1-2,0.2
	c-0.4-0.4-0.4-0.9-0.1-1.4c0.7-1.3,0.5-1.5-0.6-2.6L40.9,58.9c-1.1-1.1-1.2-1.3-2.6-0.6c-0.5,0.3-1,0.3-1.4-0.1
	c-0.8-0.8,0.1-1.9,0.2-2l8.3-8.3c0.1-0.1,1.1-1,2-0.2c0.4,0.4,0.4,0.9,0.1,1.4c-0.7,1.3-0.5,1.5,0.6,2.6L63.3,67L63.3,67z
	 M60.2,56.2l-2.6,2.6l-1.7-1.7l2.6-2.6l-6.6-6.6c-1.1-1.1-1.2-1.3-2.6-0.6c-0.5,0.3-1,0.3-1.4-0.1c-0.8-0.8,0.1-1.9,0.2-2l8.3-8.3
	c0.1-0.1,1.1-1,2-0.2c0.4,0.4,0.4,0.9,0.1,1.4c-0.7,1.3-0.5,1.5,0.6,2.6L74.4,56c1.1,1.1,1.2,1.3,2.6,0.6c0.5-0.3,1-0.3,1.4,0.1
	c0.8,0.8-0.1,1.9-0.2,2L69.9,67c-0.1,0.1-1.1,1-2,0.2c-0.4-0.4-0.4-0.9-0.1-1.4c0.7-1.3,0.5-1.5-0.6-2.6L60.2,56.2L60.2,56.2z"/>
<path class="st1" d="M59.1,34.1l7.7-7.7l21.8,21.8l-7.7,7.7c-0.1,0.1-1.1,1-2,0.2c-0.4-0.4-0.4-0.9-0.1-1.4c0.7-1.3,0.5-1.5-0.6-2.6
	L62.9,36.9c-1.1-1.1-1.2-1.3-2.6-0.6c-0.5,0.3-1,0.3-1.4-0.1C58.1,35.3,59,34.3,59.1,34.1L59.1,34.1z M68.1,25.1l6.5-6.5l5.9,5.9
	c0.1,0.1,0.7,0.7-0.2,1.6c-0.5,0.5-0.9,0.3-1.5,0.1c-3.1-1.6-6-1.5-9,0.6L68.1,25.1L68.1,25.1z M88.2,45.3c2.1-2.7,2.3-6.1,0.7-9.2
	c-0.2-0.6-0.5-1.3,0-1.8c0.9-0.9,1.7,0,1.8,0.1l5.8,5.8l-6.7,6.7L88.2,45.3L88.2,45.3z M77.9,34.9c0.9-1.5,0.3-3.2-0.5-4.6
	c-0.4-0.6-0.6-1.3,0-1.9c0.9-0.9,1.8,0.3,2,0.5l6.3,6.3c0.2,0.2,1.4,1.1,0.5,2c-0.6,0.6-1.3,0.3-1.9,0c-1.4-0.8-3.1-1.4-4.6-0.5
	L77.9,34.9L77.9,34.9z"/>
<path class="st1" d="M75.8,149.2c-0.8-0.8-1.8-0.8-2.7-0.3c-2.5,1.3-2.8,0.9-4.9-1.1l-28.9-29c-2-2-2.4-2.3-1.1-4.9
	c0.5-0.9,0.5-1.9-0.3-2.7c-1.6-1.6-3.5,0.1-3.7,0.3l-15.7,15.7c-0.2,0.2-1.9,2.1-0.3,3.7c0.8,0.8,1.8,0.8,2.7,0.3
	c2.5-1.3,2.8-0.9,4.9,1.1l12.5,12.5l-4.8,4.9l3.2,3.2l4.9-4.9l13.2,13.2c2,2,2.4,2.3,1.1,4.9c-0.5,0.9-0.5,1.9,0.3,2.7
	c1.6,1.6,3.5-0.1,3.8-0.3l15.6-15.6C75.7,152.7,77.4,150.8,75.8,149.2L75.8,149.2z"/>
<path class="st1" d="M54.9,170c-0.8-0.8-1.8-0.8-2.7-0.3c-2.5,1.3-2.8,0.9-4.9-1.1l-28.9-28.9c-2-2-2.4-2.3-1.1-4.9
	c0.5-0.9,0.5-1.9-0.3-2.7c-1.6-1.6-3.5,0.1-3.7,0.3L0,145.7v6.4c0,0,0,0,0.1,0c2.5-1.3,2.8-0.9,4.9,1.1l28.9,28.9
	c2,2,2.4,2.3,1.1,4.9v0.1h6.4l13.3-13.3C54.8,173.5,56.5,171.6,54.9,170L54.9,170z"/>
<path class="st1" d="M94.8,186.4c-0.1,0.2-0.2,0.5-0.3,0.7h3.6l6.8-6.8l-23.2-23.2l-8,7.9c-0.6,0.6-1.3,1.5-0.5,2.3s1.5,0.3,2.3-0.1
	s1.5,0.5,2,1l16.3,16.3C94.3,184.8,95.2,185.6,94.8,186.4L94.8,186.4z"/>
<path class="st1" d="M157.4,84.9l-1.8-1.8l-4.5,4.5l7.2,7.2c0.1,0.1,1,0.8,1.9-0.1s0.2-1.8-0.4-2.6C158.6,90.2,157,87.7,157.4,84.9
	L157.4,84.9z"/>
<path class="st1" d="M175,77c0.8,0.6,1.7,1.2,2.6,0.4c0.9-0.9,0.3-1.8,0.1-1.9l-7.2-7.2l-4.5,4.5l1.8,1.8
	C170.6,74.1,173.1,75.7,175,77L175,77z"/>
<path class="st1" d="M187.1,94.5c-1.4,0.7-1.6,0.5-2.7-0.6l-19.7-19.8l-7.6,7.6l19.8,19.8c1.1,1.1,1.4,1.3,0.6,2.7
	c-0.3,0.5-0.3,1.1,0.2,1.5c0.9,0.9,2-0.1,2.1-0.2l7.4-7.4L187.1,94.5L187.1,94.5z"/>
<path class="st1" d="M155.2,14.1c-1.2,1.2-0.6,2.4,0.1,3.6c1.6,2.6,2.7,5.8,1,8.7l3.4,3.4c2.9-1.7,6.1-0.6,8.7,1
	c1.2,0.7,2.4,1.2,3.6,0.1c1.7-1.7-0.6-3.4-1-3.9l-11.9-11.9C158.6,14.6,156.9,12.4,155.2,14.1L155.2,14.1z"/>
<path class="st1" d="M120.8,25c-0.2,0.2-1.9,2.2-0.3,3.8c0.8,0.8,1.8,0.8,2.7,0.3c2.5-1.3,2.8-0.9,4.9,1.1l29,28.9
	c2,2,2.4,2.3,1.1,4.9c-0.5,0.9-0.5,1.9,0.3,2.7c1.6,1.6,3.5-0.1,3.8-0.3l14.6-14.6l-41.3-41.3L120.8,25L120.8,25z"/>
<path class="st1" d="M187.1,31.9l-6.4-6.4c-0.2-0.2-1.7-2-3.5-0.3c-1,1-0.4,2.2,0,3.4c2.9,5.9,2.6,12.4-1.4,17.4l3.2,3.2l8-8
	L187.1,31.9L187.1,31.9z"/>
<path class="st1" d="M161.3,6.8l-6.9-6.9h-8.7l-8,8l3.2,3.2c5.6-4.1,11.1-4.2,17-1.1c1.1,0.5,1.9,0.8,2.9-0.1
	C162.6,8.2,161.6,7.1,161.3,6.8L161.3,6.8z"/>
</svg>
