<?xml version="1.0" encoding="utf-8"?>
<!-- Generator: Adobe Illustrator 25.1.0, SVG Export Plug-In . SVG Version: 6.00 Build 0)  -->
<svg version="1.1" id="Layer_2_1_" xmlns="http://www.w3.org/2000/svg" xmlns:xlink="http://www.w3.org/1999/xlink" x="0px" y="0px"
	 viewBox="0 0 161.7 197" style="enable-background:new 0 0 161.7 197;" xml:space="preserve">
<style type="text/css">
	.st0{fill:#150400;}
	.st1{fill:#F7BE00;}
</style>
<g>
	<path class="st0" d="M80.9,191.8c-8.2-3.5-46.4-20.5-58.8-30.7C7.7,149.3,0,132.3,0,112.2V18.3C23,6,49.5,0,80.9,0
		s57.9,6,80.9,18.3V112c0,20.1-7.5,37.1-22.1,48.8C127.3,171.2,89,188.2,80.9,191.8z"/>
	<path class="st1" d="M152,22.1c-9.7-0.9-19.7-1.5-30-1.5c-37.8,0-78.4,8.2-112,38.9V112c0,17.2,6.4,31.4,18.3,41.3
		c10.6,8.6,43.3,23.4,52.6,27.6c9.1-4,41.8-18.6,52.6-27.6c12.2-9.9,18.3-23.9,18.3-41.3V22.1 M17,106.7V63.8h13.7v43.3
		c0,3.8,0.9,9.5,7.1,9.5c2.7,0,4.9-0.7,6.4-1.8v-51h13.5v59c-5.3,3.5-12.2,5.5-20.5,5.5C23.6,128.4,17,121.1,17,106.7 M78.2,156
		H64.5V67.4c4.9-3.1,10.8-4.9,18.3-4.9c16.3,0,25.2,12.4,25.2,32c0,19.9-8.6,33.4-23.9,33.4c-2.9,0-4.9-0.4-6.2-0.7L78.2,156
		L78.2,156z M78.2,116.2c0.9,0.4,2.7,0.9,4.4,0.9c7.7,0,11.5-7.3,11.5-22.1c0-15.2-3.3-21.4-11.3-21.4c-1.8,0-3.8,0.4-4.9,0.9
		L78.2,116.2L78.2,116.2z M111.1,80.2c0-11,9.3-17.5,18.3-17.7c7.5-0.2,12.6,2.7,15,4.4v11.9c-2.9-2.9-7.5-5.5-12.2-5.5
		c-3.8,0-8,1.8-8,6.4c-0.2,4.9,4,6.8,8.8,9.9c11.3,6.6,13.5,12.6,13.3,20.5c-0.2,8.6-6.2,18.1-19.7,18.1c-5.3,0-10.6-1.8-15-4.2
		v-12.6c3.5,3.1,8.6,5.5,13,5.5c5.1,0,8.2-2.9,8.2-7.5c0-4.2-2.4-6.6-8.4-10.2C113.3,92.8,111.3,87.5,111.1,80.2 M23.9,158.8
		c-13.7-11.3-21-27.4-21-46.8V20.1C24.5,8.6,50.8,2.7,81.1,2.7s56.6,5.7,78.2,17.5v92.1c0,19.4-7.3,35.6-21,46.8
		c-12.6,10.4-52.6,27.8-57.2,29.8C76.4,186.7,36.5,169.2,23.9,158.8z M130.8,178.3v8h1.5v-3.3h0.2c0,0.2,2.2,3.3,2.2,3.3h1.8
		c0,0-2.2-3.1-2.4-3.5c1.1-0.2,1.8-1.1,1.8-2.2c0-1.1-0.7-2.4-2.7-2.4L130.8,178.3L130.8,178.3z M133,179.4c1.3,0,1.3,0.7,1.3,1.1
		c0,0.7-0.2,1.3-1.8,1.3h-0.2v-2.4H133z M138.5,182.3c0,2.9-2.4,5.3-5.3,5.3c-2.9,0-5.3-2.4-5.3-5.3c0-2.9,2.4-5.5,5.3-5.5
		C136.1,176.7,138.5,179.2,138.5,182.3 M133.2,175.6c-3.5,0-6.6,2.9-6.6,6.6c0,3.5,2.9,6.6,6.6,6.6c3.5,0,6.6-2.9,6.6-6.6
		C139.6,178.5,136.8,175.6,133.2,175.6"/>
</g>
</svg>
