<?xml version="1.0" encoding="utf-8"?>
<!-- Generator: Adobe Illustrator 25.1.0, SVG Export Plug-In . SVG Version: 6.00 Build 0)  -->
<svg version="1.1" id="Layer_1" xmlns="http://www.w3.org/2000/svg" xmlns:xlink="http://www.w3.org/1999/xlink" x="0px" y="0px"
	 viewBox="0 0 90 43.7" style="enable-background:new 0 0 90 43.7;" xml:space="preserve">
<style type="text/css">
	.st0{filter:url(#Adobe_OpacityMaskFilter);}
	.st1{fill-rule:evenodd;clip-rule:evenodd;fill:#FFFFFF;}
	.st2{mask:url(#mask-4_1_);fill-rule:evenodd;clip-rule:evenodd;}
	.st3{filter:url(#Adobe_OpacityMaskFilter_1_);}
	.st4{mask:url(#mask-4_2_);fill-rule:evenodd;clip-rule:evenodd;}
	.st5{filter:url(#Adobe_OpacityMaskFilter_2_);}
	.st6{mask:url(#mask-4_3_);fill-rule:evenodd;clip-rule:evenodd;}
	.st7{filter:url(#Adobe_OpacityMaskFilter_3_);}
	.st8{mask:url(#mask-4_4_);fill-rule:evenodd;clip-rule:evenodd;}
	.st9{fill-rule:evenodd;clip-rule:evenodd;}
	.st10{fill-rule:evenodd;clip-rule:evenodd;fill:#1A1919;}
</style>
<desc>Created with Sketch.</desc>
<g id="Desktop">
	<g id="Assets_x2F_Vanityfair-White-Logo-Copy">
		<g id="Group">
			<g id="Group-30">
				<g id="Clip-26">
				</g>
				<defs>
					<filter id="Adobe_OpacityMaskFilter" filterUnits="userSpaceOnUse" x="45.1" y="17.8" width="9.9" height="25.9">
						<feColorMatrix  type="matrix" values="1 0 0 0 0  0 1 0 0 0  0 0 1 0 0  0 0 0 1 0"/>
					</filter>
				</defs>
				<mask maskUnits="userSpaceOnUse" x="45.1" y="17.8" width="9.9" height="25.9" id="mask-4_1_">
					<g class="st0">
						<polygon id="path-3_1_" class="st1" points="0,0.1 89.8,0.1 89.8,43.7 0,43.7 						"/>
					</g>
				</mask>
				<path id="Fill-25" class="st2" d="M53.1,18.6c-0.1-0.5-0.5-0.6-1.1-0.7c-0.6-0.1-1.1,0.4-1.2,1.7c-0.3,1.9-0.9,7.7-1.8,7.9
					c-0.6,0.1-0.9-3-1-4.5c-0.2-1.5-0.3-2.9-0.5-3.8c-0.2-0.9-0.6-1.1-1.2-1.2c-0.6-0.1-1.2,0-1.2,0s0.3,1.6,0.4,4.5
					s0.4,7.4,3.2,7.3c2.1-0.1,3-3,3-3s0.5,6.8,0.7,9.4c0.1,2.6,0,6.2-0.2,6.6c-0.2,0.4,0.4,1.3,0.9,0.9c0.5-0.4,1.8-1.1,1.9-3.1
					c0.1-1.9-0.5-9.9-1.2-14.9C53.2,20.7,53.3,19,53.1,18.6"/>
				<defs>
					<filter id="Adobe_OpacityMaskFilter_1_" filterUnits="userSpaceOnUse" x="0" y="19.4" width="14.1" height="19.2">
						<feColorMatrix  type="matrix" values="1 0 0 0 0  0 1 0 0 0  0 0 1 0 0  0 0 0 1 0"/>
					</filter>
				</defs>
				<mask maskUnits="userSpaceOnUse" x="0" y="19.4" width="14.1" height="19.2" id="mask-4_2_">
					<g class="st3">
						<polygon id="path-3_2_" class="st1" points="0,0.1 89.8,0.1 89.8,43.7 0,43.7 						"/>
					</g>
				</mask>
				<path id="Fill-27" class="st4" d="M14.1,20.6c0-0.2-0.1-0.3-0.3-0.5c-0.2-0.2-0.4-0.4-0.6-0.6c-0.1-0.1-0.3-0.2-0.4-0.1
					c-0.5,0.6-2.3,3.2-4.1,8.3c-1.1,3.3-1.5,5.4-1.5,5.4s-1.6-4.6-2.3-6.7c-0.8-2.2-1.5-3.9-1.8-4.4c-0.4-0.8-1.3-1-1.7-1
					c-0.8-0.1-1.7,0.3-1.4,0.9c0.3,0.6,2,5.3,3.1,8.1c1.1,2.8,2.5,6.9,2.8,7.5c0.2,0.6,1.2,1.2,1.8,1.1c0.6-0.2,0.8-0.4,1.2-2.2
					c0.3-1.6,0.9-5.2,2.2-8.7c1.2-3.5,2.6-5.4,3-6.6C14.1,21,14.2,20.8,14.1,20.6"/>
				<defs>
					<filter id="Adobe_OpacityMaskFilter_2_" filterUnits="userSpaceOnUse" x="61.6" y="11.4" width="28.1" height="17">
						<feColorMatrix  type="matrix" values="1 0 0 0 0  0 1 0 0 0  0 0 1 0 0  0 0 0 1 0"/>
					</filter>
				</defs>
				<mask maskUnits="userSpaceOnUse" x="61.6" y="11.4" width="28.1" height="17" id="mask-4_3_">
					<g class="st5">
						<polygon id="path-3_3_" class="st1" points="0,0.1 89.8,0.1 89.8,43.7 0,43.7 						"/>
					</g>
				</mask>
				<path id="Fill-28" class="st6" d="M68.1,19c-0.1,1.2-0.3,2.3-0.9,3.4c-1.1,2-2.4,3.4-3.1,3c-0.7-0.4,0.1-2.9,1.1-4.5
					c0.9-1.5,2.1-2.7,2.9-2.9C68.2,18.3,68.2,18.6,68.1,19z M89.5,11.4c-0.3,0.2-2.3,0.7-4.4,2.6c-1.9,1.7-3.2,4.2-3.2,4.2
					s0-1-0.1-2c-0.1-1-0.5-1.3-0.9-1.5c-0.4-0.2-1.1-0.3-1.4-0.2c-0.3,0-0.7,0-0.6,0.5c0.1,0.4,0.5,4.1,0.4,6.5
					c-0.1,2.4-0.4,4.3-1.5,4.5c-1.1,0.2-1.3-2.8-1.5-4.2c-0.1-1.4-0.1-4.1-0.2-5.5c-0.1-1.4-1.5-1.3-1.8-1.3c-0.3,0-0.8,0-0.7,0.5
					c0,0.4,0.1,2.7-0.1,6.1c-0.2,3.2-1,5.4-1.6,5.3c-0.5,0-1.2-1-1.4-4.5c-0.1-2.3-0.1-4.2-0.1-4.8c0.1-0.2,0.2-0.5,0.1-0.6
					c-0.1-0.6-0.3-1.3-2-1.5c-2-0.2-4.5,2.1-6,5.3c-1.5,3.2-1.4,6.2,0.6,6.7c2.9,0.8,5.1-2.7,5.1-2.7s0.2,1.3,1.2,2.3
					c0.8,0.8,1.9,1.2,3,1.2c1.9,0,2.5-2.3,2.5-2.3s0.7,1.4,2.5,1.6c1.8,0.1,2.6-1.2,2.6-1.2s0.5,0.4,1.3,0.4c0.8-0.1,1-0.5,1-0.8
					c0-0.4-0.1-0.9,0.1-2.7c0.2-1.8,0.2-2.8,1.5-5.2c1.3-2.4,4.2-4.6,4.9-5.1c0.8-0.4,0.9-1.1,0.9-1.4
					C89.7,11.4,89.8,11.3,89.5,11.4L89.5,11.4z"/>
				<defs>
					<filter id="Adobe_OpacityMaskFilter_3_" filterUnits="userSpaceOnUse" x="11.1" y="0.1" width="57.5" height="37.7">
						<feColorMatrix  type="matrix" values="1 0 0 0 0  0 1 0 0 0  0 0 1 0 0  0 0 0 1 0"/>
					</filter>
				</defs>
				<mask maskUnits="userSpaceOnUse" x="11.1" y="0.1" width="57.5" height="37.7" id="mask-4_4_">
					<g class="st7">
						<polygon id="path-3_4_" class="st1" points="0,0.1 89.8,0.1 89.8,43.7 0,43.7 						"/>
					</g>
				</mask>
				<path id="Fill-29" class="st8" d="M42.6,15.1c-0.5,0-1,0.1-1.4,0.1c0.1-5.7,1.1-7.6,1.1-7.6S43.1,8.8,42.6,15.1z M41.6,22.1
					c-0.2-1.2-0.3-2.7-0.4-4.3c0-0.4,0-0.7,0-1c0.4-0.1,0.9-0.1,1.3-0.2C42.3,18.5,42,20.4,41.6,22.1z M16.6,28.6
					c-0.9,1.7-2.4,4-3.1,3.8c-0.6-0.2,0.1-3,0.9-4.6c0.9-1.7,1.8-3.2,2.6-3.2c0.1,0.4,0.1,0.8,0.2,1.3
					C17.3,26.6,17.2,27.6,16.6,28.6z M59.4,15c0-0.3,0-0.5-0.1-0.7c4.6-0.7,5.9-0.9,6.5-1c0.7-0.1,1.3-0.5,1.5-1.3
					c0.2-1-0.6-0.8-1.4-0.7c-0.8,0.1-2.6,0.4-6.6,1.1C58.8,4.8,60.4,1.8,62,1.9c1.9,0.1,2.9,1.9,3.6,3c0.7,1.1,1,1.2,1.6,1.3
					c1.1,0.1,1.5-0.2,1.3-1.2c-0.2-1.3-2.8-4.6-5.7-4.8c-3.1-0.3-4.6,1.8-5.5,4c-1,2.3-1,5.2-0.8,8.8c-0.1,0-0.2,0-0.3,0.1
					c-3.6,0.7-7.4,1.4-11.7,1.9c0.3-5.4-0.4-9.6-2.2-10.1c-2.2-0.6-3.4,4.1-3.7,8.9c0,0.6,0,1.1-0.1,1.7c-5,0.3-5.9-0.1-6.3-0.1
					c-0.4,0-0.8,0.4-0.3,1.2c0.5,0.8,1.3,0.9,3.5,0.9c0.6,0,1.7-0.1,3.1-0.3c0,3.2,0.4,6.7,1.5,9.8c-0.8,1.9-1.6,3.1-2.2,3.1
					c-1.1,0-1.7-2.6-1.6-6.1c0.1-2.7,0.5-4.1-1.4-4.2c-0.6-0.1-1.2,0.1-1.2,0.1s0,2.9,0.1,5.2c-0.1,0.9-0.4,2.6-0.7,3.7
					c-0.3,0.9-0.8,1.7-1.1,1.7c-0.7-0.2-1-1.9-1.3-3.8c-0.2-1.2-0.6-4.8-0.7-5.5c-0.1-0.7-0.7-1.2-1.5-1.2c-0.8,0-1.4,0.2-1.6,1
					c-0.3,0.8-1.2,4.5-1.2,4.5s-0.5-2.6-0.7-3.2c-0.2-0.6-0.6-0.9-1.3-0.9c-0.7,0-0.9,0.1-1,0.2c-0.1,0.1-0.1,0.1-0.1,0.6
					c0,0.5,0.1,1.7,0,5.1c-0.1,3.4-0.5,4.7-0.8,4.7c-0.5,0-1.1-2-1.5-4c-0.4-1.8-0.6-4-0.6-4.3c0-0.1-0.1-0.2-0.3-0.2
					c-0.2-0.5-0.7-1.1-2.1-1.1c-1.8,0-4.1,2.6-5.4,6C10.6,31.6,11,34,13,34.3c3.2,0.6,5.2-4.5,5.2-4.5s0.2,1.2,0.8,2.4
					c0.5,0.9,1.2,1.8,2.3,1.9c2.5,0.2,2.9-3.1,2.9-3.1s0.6,1.3,1.7,1.1c1.1-0.2,1.1-2,1.2-2.9c0.2-1.6,0.8-4.8,0.8-4.8
					s0.5,3.8,0.8,4.9c0.4,1.6,0.8,2.7,2.8,2.7c2,0,2.7-1.7,3-2.6c0.5,1.3,1.5,2.5,3.4,2.2c1.1-0.1,2.2-1.1,3.1-2.6
					c0.3,0.6,0.6,1.1,1,1.6c1.8,2.6,5.1,3.5,6.3,2.4c1-0.8,0.6-1.6,0.6-1.6s-1.3,0.2-2.6-0.4c-0.8-0.3-2.6-1-3.9-5
					c0.8-2.2,1.4-4.8,1.8-7.6c0.1-0.7,0.2-1.4,0.2-2.1c4-0.5,8.6-1.1,11.6-1.6c0.3,0,0.5-0.1,0.7-0.1c0.2,2,0.5,4.2,0.8,6.6
					c0.9,7.5,1.6,14.9,1.7,15.4c0.1,0.6,0.4,1.5,1.7,0.9c0.9-0.4,1.2-1.4,0.9-2.5C61.7,33.9,60,22.1,59.4,15L59.4,15z"/>
			</g>
			<path id="Fill-31" class="st9" d="M33.9,12.7c0.5-0.4,0.4-1.2-0.1-1.7c-0.5-0.5-1.3-0.5-1.7-0.1c-0.5,0.4-0.4,1.2,0.1,1.7
				C32.7,13.1,33.4,13.2,33.9,12.7"/>
			<path id="Fill-32" class="st9" d="M75.1,12.7c0.5-0.4,0.4-1.3-0.2-1.8c-0.6-0.6-1.4-0.7-1.8-0.2c-0.5,0.4-0.4,1.3,0.2,1.8
				C73.8,13.1,74.6,13.1,75.1,12.7"/>
			<path id="Fill-33" class="st10" d="M85,25.4c0,0.4-0.3,0.7-0.7,0.7c-0.4,0-0.7-0.3-0.7-0.7v0c0-0.4,0.3-0.7,0.7-0.7
				C84.8,24.7,85,25,85,25.4L85,25.4z M84.4,24.6c-0.4,0-0.8,0.3-0.8,0.8v0c0,0.4,0.3,0.8,0.8,0.8c0.4,0,0.8-0.3,0.8-0.8v0
				C85.1,25,84.8,24.6,84.4,24.6L84.4,24.6z"/>
			<path id="Fill-34" class="st10" d="M84.4,25.4h-0.1v-0.2h0.1c0.1,0,0.1,0,0.1,0.1C84.5,25.4,84.5,25.4,84.4,25.4z M84.4,25H84
				v0.8h0.3v-0.2h0.1l0.2,0.2h0.3l-0.2-0.3c0.1,0,0.2-0.1,0.2-0.3C84.8,25.1,84.6,25,84.4,25z"/>
		</g>
	</g>
</g>
</svg>
