<?xml version="1.0" encoding="utf-8"?>
<!-- Generator: Adobe Illustrator 25.1.0, SVG Export Plug-In . SVG Version: 6.00 Build 0)  -->
<svg version="1.1" id="Layer_1" xmlns="http://www.w3.org/2000/svg" xmlns:xlink="http://www.w3.org/1999/xlink" x="0px" y="0px"
	 viewBox="0 0 124.84 109.98" style="enable-background:new 0 0 124.84 109.98;" xml:space="preserve">
<g id="Group_13" transform="translate(5 5)">
	<path d="M102.36,19.24h-86.5c-2.76,0-5-2.24-5-5s2.24-5,5-5h86.5c2.76,0,5,2.24,5,5S105.12,19.24,102.36,19.24z"/>
	<path d="M102.36,90.92h-86.5c-2.76,0-5-2.24-5-5s2.24-5,5-5h86.5c2.76,0,5,2.24,5,5S105.12,90.92,102.36,90.92z"/>
	<path d="M102.36,55.08h-86.5c-2.76,0-5-2.24-5-5c0-2.76,2.24-5,5-5h86.5c2.76,0,5,2.24,5,5C107.36,52.84,105.12,55.08,102.36,55.08
		z"/>
</g>
</svg>
