<?xml version="1.0" encoding="utf-8"?>
<!-- Generator: Adobe Illustrator 25.1.0, SVG Export Plug-In . SVG Version: 6.00 Build 0)  -->
<svg version="1.1" id="Layer_1" xmlns="http://www.w3.org/2000/svg" xmlns:xlink="http://www.w3.org/1999/xlink" x="0px" y="0px"
	 viewBox="0 0 47 48.08" style="enable-background:new 0 0 47 48.08;" xml:space="preserve">
<style type="text/css">
	.st0{fill:#FBF396;}
</style>
<circle id="Ellipse_60" cx="23.5" cy="23.98" r="23.5"/>
<path id="Social_Icons_16px_Instagram-2" class="st0" d="M18.6,35.79c-0.99-0.02-1.96-0.21-2.88-0.55c-0.79-0.3-1.51-0.77-2.1-1.37
	c-0.6-0.59-1.07-1.31-1.37-2.11c-0.35-0.92-0.54-1.9-0.56-2.88c-0.06-1.26-0.07-1.68-0.07-4.9s0.01-3.64,0.07-4.9
	c0.02-0.98,0.21-1.96,0.55-2.88c0.3-0.79,0.77-1.51,1.37-2.1c0.59-0.61,1.31-1.08,2.11-1.38c0.92-0.34,1.9-0.53,2.88-0.55
	c1.26-0.06,1.68-0.07,4.9-0.07s3.64,0.01,4.9,0.07c0.99,0.02,1.96,0.21,2.88,0.55c0.79,0.3,1.51,0.77,2.1,1.37
	c0.6,0.59,1.07,1.31,1.37,2.1c0.35,0.92,0.53,1.9,0.55,2.89c0.06,1.25,0.07,1.67,0.07,4.9s-0.01,3.65-0.07,4.9
	c-0.02,0.99-0.21,1.96-0.55,2.88c-0.62,1.6-1.88,2.86-3.47,3.48c-0.92,0.35-1.9,0.53-2.88,0.55c-1.25,0.06-1.67,0.07-4.9,0.07
	S19.84,35.84,18.6,35.79z M18.69,14.3c-0.75,0.01-1.5,0.15-2.21,0.41c-0.52,0.19-0.98,0.49-1.37,0.89c-0.39,0.38-0.7,0.85-0.89,1.37
	c-0.26,0.71-0.4,1.45-0.41,2.21c-0.06,1.26-0.07,1.64-0.07,4.8s0.01,3.54,0.07,4.8c0.01,0.75,0.15,1.5,0.41,2.21
	c0.19,0.52,0.49,0.98,0.89,1.37c0.38,0.39,0.85,0.7,1.37,0.89c0.71,0.26,1.45,0.4,2.21,0.41c1.25,0.06,1.62,0.07,4.8,0.07
	s3.55-0.01,4.8-0.07c0.75-0.01,1.5-0.15,2.2-0.41c1.04-0.4,1.86-1.22,2.26-2.26c0.26-0.71,0.4-1.45,0.41-2.21
	c0.06-1.25,0.07-1.62,0.07-4.8s-0.01-3.55-0.07-4.8c-0.01-0.75-0.15-1.5-0.41-2.21c-0.19-0.52-0.49-0.98-0.89-1.37
	c-0.38-0.39-0.85-0.7-1.37-0.89c-0.71-0.26-1.45-0.4-2.2-0.41c-1.26-0.06-1.64-0.07-4.8-0.07C20.33,14.24,19.95,14.25,18.69,14.3z
	 M17.39,23.98c0-3.37,2.73-6.1,6.1-6.1s6.1,2.73,6.1,6.1s-2.73,6.1-6.1,6.1l0,0C20.13,30.07,17.4,27.34,17.39,23.98z M19.53,23.98
	c0,2.19,1.77,3.96,3.96,3.96s3.96-1.77,3.96-3.96s-1.77-3.96-3.96-3.96C21.31,20.02,19.54,21.79,19.53,23.98z M28.41,17.63
	c0-0.79,0.64-1.43,1.43-1.43c0.79,0,1.43,0.64,1.43,1.43s-0.64,1.43-1.43,1.43S28.41,18.42,28.41,17.63z"/>
</svg>
