<?xml version="1.0" encoding="utf-8"?>
<!-- Generator: Adobe Illustrator 25.1.0, SVG Export Plug-In . SVG Version: 6.00 Build 0)  -->
<svg version="1.1" id="Layer_1" xmlns="http://www.w3.org/2000/svg" xmlns:xlink="http://www.w3.org/1999/xlink" x="0px" y="0px"
	 viewBox="0 0 47 48.08" style="enable-background:new 0 0 47 48.08;" xml:space="preserve">
<style type="text/css">
	.st0{fill:#F8B9BF;}
</style>
<circle id="Ellipse_60" cx="23.56" cy="24.04" r="23.5"/>
<path id="Path_226" class="st0" d="M17.87,16.74c-0.01,1.11-0.92,2-2.03,2s-2-0.92-2-2.03c0.01-1.11,0.91-2,2.01-2
	C16.97,14.72,17.87,15.62,17.87,16.74C17.87,16.74,17.87,16.74,17.87,16.74z M17.89,20.39h-4.06v12.98h4.06V20.39z M24.36,20.39
	h-4.03v12.98h4.03v-6.81c0-3.79,4.89-4.1,4.89,0v6.81h4.05v-8.22c0-6.39-7.24-6.16-8.94-3.01L24.36,20.39z"/>
</svg>
