<?xml version="1.0" encoding="utf-8"?>
<!-- Generator: Adobe Illustrator 25.1.0, SVG Export Plug-In . SVG Version: 6.00 Build 0)  -->
<svg version="1.1" id="Layer_1" xmlns="http://www.w3.org/2000/svg" xmlns:xlink="http://www.w3.org/1999/xlink" x="0px" y="0px"
	 viewBox="0 0 115.6 131.45" style="enable-background:new 0 0 115.6 131.45;" xml:space="preserve">
<g>
	<g>
		<path d="M71.45,50.38V11.52c0-3.53,1.99-5.52,5.52-5.52h15.51c10.67,0,16.49,7.21,16.49,15.82c0,8.54-5.89,15.68-16.49,15.68H81.9
			v12.88c0,2.8-2.28,5.23-5.15,5.23C73.8,55.61,71.45,53.18,71.45,50.38z M91.08,14.98H81.9v13.54h9.18c4.12,0,7.21-2.65,7.21-6.77
			C98.29,17.7,95.2,14.98,91.08,14.98z"/>
	</g>
	<g>
		<path d="M8.93,50.02V11.23c0-2.87,2.35-5.23,5.3-5.23c2.87,0,5.15,2.36,5.15,5.23v35.18h20.83c2.5,0,4.56,2.06,4.56,4.56
			c0,2.58-2.06,4.64-4.56,4.64H14.45C10.92,55.61,8.93,53.62,8.93,50.02z"/>
	</g>
	<g>
		<path d="M110.62,86.2c-7.18-10.76-18.3-10.79-22.75-10.3c-2.61,0.29-4.49,2.63-4.21,5.24c0.29,2.61,2.64,4.5,5.24,4.21
			c0.88-0.1,1.95-0.14,3.13-0.06c-4.02,19.21-21.17,33.13-40.84,33.13c-16.83,0-31.94-10.02-38.48-25.54
			c-1.02-2.42-3.81-3.55-6.23-2.53c-2.42,1.02-3.55,3.81-2.53,6.23c8.03,19.05,26.57,31.35,47.24,31.35
			c23.47,0,44.01-16.14,49.69-38.69c0.64,0.64,1.25,1.38,1.82,2.23c0.92,1.37,2.42,2.12,3.96,2.12c0.91,0,1.82-0.26,2.63-0.8
			C111.49,91.34,112.08,88.39,110.62,86.2z"/>
	</g>
</g>
</svg>
